<?xml version="1.0" encoding="UTF-8" standalone="no"?>
<!-- Created with Inkscape (http://www.inkscape.org/) -->

<svg
   width="6.7845082mm"
   height="6.0765576mm"
   viewBox="0 0 6.7845082 6.0765576"
   version="1.1"
   id="svg5"
   xml:space="preserve"
   xmlns="http://www.w3.org/2000/svg"
   xmlns:svg="http://www.w3.org/2000/svg"><defs
     id="defs2" /><g
     id="layer1"
     transform="translate(100.83335,-33.070754)"><g
       id="g9681"
       transform="translate(-167.61346,-7.2271143)"><g
         id="g9667"
         transform="translate(9.4069981,4.8260475)"
         style="fill:#7f7f7d;fill-opacity:1"><g
           id="g9665"
           style="fill:#7f7f7d;fill-opacity:1"><path
             id="path9663"
             style="fill:#7f7f7d;fill-opacity:1"
             d="M 228.67383,17.994141 C 113.13226,17.640987 11.183663,101.88712 -7.3789062,221.71484 c -2.7730148,17.90078 -2.7832808,50.97871 0.00195,68.77735 10.7096011,68.43805 48.6306641,127.84814 105.4902341,164.99804 29.088049,19.00507 66.251979,32.50616 101.103519,36.73243 24.66025,2.99041 55.22403,1.58101 79.56836,-3.66993 32.83368,-7.08203 67.45049,-23.15024 93.88867,-43.58789 50.77118,-39.2479 83.23866,-95.65932 91.53711,-159.00586 1.20265,-9.18047 1.87296,-15.03404 1.59961,-20.16406 -0.29625,-5.55933 -2.37245,-10.44666 -5.77149,-13.8457 a 4.9023623,4.9023623 0 0 0 -0.002,-0.002 l -2.91406,-2.91211 c -1.82123,-1.82035 -4.3801,-2.88074 -6.95508,-2.88086 H 431.7168 413.30859 a 4.9023623,4.9023623 0 0 0 -0.13086,0.0234 4.9023623,4.9023623 0 0 0 -0.27539,-0.0234 h -21.44336 -21.44531 a 4.9023623,4.9023623 0 0 0 -1.1289,0.13281 c -0.35874,0.085 -0.67067,0.29715 -1.01758,0.42187 -1.37437,-0.11655 -2.76773,-0.22118 -4.72852,-0.29101 -3.34768,-0.11923 -9.39238,-0.1357 -14.83203,-0.17383 6.1329,-1.96843 11.3898,-6.56416 13.67774,-13.09375 1.08569,-3.09852 1.16541,-5.6938 1.39453,-8.72656 0.24648,-3.26252 0.39512,-7.12098 0.41211,-11.11328 a 4.9023623,4.9023623 0 0 0 0,-0.0117 v -0.01 c 0,0 0,-0.002 0,-0.002 v -0.002 c 0,-6.5e-4 0,-0.001 0,-0.002 l 0.01,-3.44726 h 1.4668 a 4.9023623,4.9023623 0 0 0 0.97656,0.29687 l 5.21094,0.39063 -3.14258,-0.20703 0.043,1.08593 c 0.22798,5.67193 0.61319,10.29022 2.45117,14.75 1.99768,4.84723 5.77008,8.27715 9.80274,10.34961 9.77291,5.02251 21.80588,1.61277 27.70312,-7.55273 2.06641,-3.21168 2.28267,-6.18385 2.57617,-8.21875 0.37708,-2.61449 0.62401,-5.64711 0.75977,-9.05274 a 4.9023623,4.9023623 0 0 0 0,-0.004 v -0.004 l 0.041,-1.05469 1.94141,-0.0547 a 4.9023623,4.9023623 0 0 0 0.002,0 l 11.16797,-0.32422 a 4.9023623,4.9023623 0 0 0 1.55469,-0.40039 h 20.89844 21.24218 a 4.9023623,4.9023623 0 0 0 0.33399,-0.0293 4.9023623,4.9023623 0 0 0 0.15234,0.0293 h 18.61133 18.57227 a 4.9023623,4.9023623 0 0 0 0.002,0 c 2.57552,-0.001 5.13449,-1.06302 6.95508,-2.88477 l 2.91406,-2.91211 c 2.20572,-2.2057 5.0198,-5.7682 5.55078,-10.83398 0.43586,-4.15816 -0.10068,-8.08463 -0.81836,-15.30274 -4.85588,-48.83833 -23.83306,-94.310723 -54.67383,-130.769528 -3.9207,-4.634894 -6.46469,-7.643895 -9.60547,-10.080078 -3.61933,-2.807389 -7.73998,-3.863174 -11.35742,-3.886718 -3.89166,-0.02532 -7.69938,1.518458 -11.20898,4.296875 -3.08808,2.444706 -6.51678,5.831137 -12.48828,11.74414 l -12,11.855469 c -0.40831,0.176993 -0.85575,0.255667 -1.23633,0.486328 a 4.9023623,4.9023623 0 0 0 -0.93164,0.732422 l -10.60156,10.642578 -7.66797,7.697266 c -0.37805,-0.370738 -0.77873,-0.744699 -0.875,-0.835938 -0.87238,-0.826759 -1.87251,-1.706722 -3.02344,-2.685547 -2.30684,-1.961859 -5.22887,-4.317691 -8.40625,-6.802734 C 370.33952,65.327519 363.08545,59.927499 357.9043,56.517578 336.09027,42.160886 304.74638,29.076249 278.78516,23.476562 261.96534,19.848628 245.1904,18.044624 228.67383,17.994141 Z M 288.5918,209.83594 h 18.58593 13.03321 l 0.11133,5.07422 c -10e-6,0.004 -10e-6,0.006 0,0.01 l 0.002,0.0996 a 4.9023623,4.9023623 0 0 0 0,0.0117 c 0.19272,8.34518 0.28939,13.73467 1.99609,18.92187 1.94561,5.91322 6.58503,9.63198 10.98438,11.59961 0.60928,0.27251 1.24152,0.39189 1.86133,0.60157 h -24.1836 a 4.9023623,4.9023623 0 0 0 -0.45508,0.0801 4.9023623,4.9023623 0 0 0 -0.55664,-0.0801 h -40.74414 -16.98242 l 4.19727,-4.20508 19.55078,-19.54883 a 4.9023623,4.9023623 0 0 0 0.38281,-0.71484 c 0.35447,-0.26755 0.78738,-0.41999 1.10156,-0.73438 z"
             transform="matrix(0.01277187,0,0,0.01277187,57.493963,35.242016)" /></g></g><g
         id="g9071"><g
           id="g8569"><path
             style="fill:#b2b39f;fill-opacity:1"
             d="M 216.5,439.89076 C 151.22404,436.2754 92.580684,397.1505 62.644146,337.24322 50.181005,312.3027 43.169906,281.75139 44.344187,257.5 48.096872,179.99907 106.16635,110.89982 183.75483,91.609548 199.16868,87.777314 210.20154,86.554225 229,86.593727 c 30.3331,0.06374 54.92113,5.808401 81.47896,19.036453 11.63291,5.79418 29.51098,17.20808 29.51728,18.84472 0.002,0.5362 -3.00155,4.00342 -6.6747,7.70494 l -6.67846,6.73003 -7.57154,-0.5607 c -6.24651,-0.46258 -8.56454,-0.18457 -13.24579,1.58857 -13.00513,4.92604 -21.73377,20.0333 -18.95564,32.80787 l 1.03395,4.75439 -18.19189,18.25 -18.1919,18.25 h 9.48094 9.48093 L 249.5,235 228.51786,256 h 40.72202 40.72202 l 0.56451,2.75 c 2.21562,10.79314 5.64624,16.59077 12.84636,21.70987 11.18339,7.9511 27.47212,6.75173 37.49879,-2.76109 4.11893,-3.90784 9.12658,-14.02929 9.12765,-18.44878 L 370,256 h 21.45132 21.45132 l -0.52072,8.75 c -2.83302,47.60444 -21.04138,88.63529 -53.9913,121.66439 C 320.87239,424.0228 270.79097,442.8977 216.5,439.89076 Z m 30.00909,-25.73515 c 10.91375,-5.16315 16.94419,-14.65981 16.92645,-26.65561 -0.0471,-31.8679 -42.51302,-41.33259 -56.65574,-12.62728 -3.2536,6.6038 -3.20282,18.74033 0.10514,25.12728 5.72101,11.04603 14.9111,16.78178 27.11506,16.92313 5.16978,0.0599 7.72976,-0.50649 12.50909,-2.76752 z m -99.41698,-51.38294 c 20.8891,-12.33303 20.56202,-41.66818 -0.59211,-53.10464 -3.30028,-1.78421 -5.66185,-2.1625 -13.5,-2.1625 -10.86243,0 -14.82793,1.52885 -21.16456,8.15974 -6.30801,6.60093 -8.33793,11.68535 -8.31813,20.83473 0.0198,9.13114 2.06053,14.22956 8.33871,20.83242 6.51603,6.853 11.60849,8.71811 22.73609,8.32706 6.59837,-0.23188 8.90576,-0.76476 12.5,-2.88681 z m 194.23766,0.24343 c 16.92352,-8.58581 21.46204,-31.30441 9.1613,-45.85904 -11.26612,-13.33043 -32.07657,-13.83678 -44.33564,-1.07874 -13.93053,14.49754 -9.20964,38.80221 9.24116,47.57644 6.96228,3.31089 18.7189,3.02136 25.93318,-0.63866 z M 226.20078,335.87361 c 10.12362,-2.15184 18.75937,-9.8142 22.25822,-19.74934 4.62489,-13.13254 -1.99634,-29.17066 -14.82115,-35.90022 -4.40764,-2.31283 -6.34591,-2.69628 -13.63785,-2.69802 -6.88989,-0.002 -9.29979,0.42306 -12.7222,2.24211 -6.60781,3.51212 -10.95904,7.88281 -13.98771,14.05026 -3.73506,7.60589 -3.95118,18.32496 -0.51029,25.30888 4.16454,8.45273 11.90459,14.65249 20.95467,16.78467 5.26821,1.24117 6.46399,1.2375 12.46631,-0.0383 z M 116.5,271.74544 c 5.95429,-3.05676 10.47147,-7.6013 13.66272,-13.74544 3.29826,-6.3502 3.32863,-19.54365 0.0592,-25.7222 -5.81483,-10.98883 -14.90527,-16.68828 -26.66338,-16.71718 -27.148548,-0.0667 -40.139341,32.32096 -20.578296,51.30431 8.652562,8.39702 22.688936,10.44074 33.519746,4.88051 z m 95.30718,-38.91139 c 18.08632,-4.4936 27.70088,-24.20907 19.98914,-40.98943 -6.76902,-14.72905 -22.43733,-21.3182 -37.38964,-15.72382 -7.45617,2.78971 -13.06414,7.99716 -16.56205,15.3792 -7.60544,16.05059 0.44309,34.7587 17.48782,40.64893 6.09744,2.10712 10.08404,2.27291 16.47473,0.68512 z m -66.69296,-39.5096 c 6.13877,-3.44453 12.3279,-10.83932 14.08134,-16.82445 6.40335,-21.85693 -12.14031,-42.89648 -33.91721,-38.48229 -23.26939,4.71671 -32.210889,32.65989 -15.94107,49.81761 6.28118,6.62396 12.98642,9.22095 22.77694,8.82167 6.26688,-0.25558 8.56723,-0.84527 13,-3.33254 z m 116.56145,-35.35658 c 6.10073,-2.61471 12.75267,-9.21153 15.33021,-15.20317 2.53521,-5.89326 3.03992,-14.9306 1.18757,-21.2647 -3.2992,-11.28162 -15.77472,-20.5 -27.74331,-20.5 -12.17363,0 -22.4434,6.26406 -27.67367,16.87959 -3.22968,6.55507 -3.22854,19.73828 0.002,25.84385 7.55575,14.27898 24.4128,20.45219 38.89696,14.24443 z m 75.64981,78.61198 c -5.91325,-2.64475 -6.78652,-5.29883 -7.1672,-21.78287 L 329.81657,200 h -22.65641 -22.6564 l 33.18189,-33.1819 33.1819,-33.18189 3.81622,2.6409 c 8.66347,5.99527 18.23807,7.22066 27.96961,3.57962 C 393.78954,135.69016 402,123.86811 402,112 c 0,-5.72024 -2.98428,-14.19796 -6.51164,-18.498224 l -2.45934,-2.998224 10.60587,-10.638866 10.60588,-10.638865 6.03781,6.637089 c 28.341,31.15399 45.32473,71.42996 47.60311,112.88809 L 468.5,200.002 447.25,200.001 426,200 v -2.46249 c 0,-4.70661 -4.08455,-13.44095 -8.32681,-17.80592 -6.22142,-6.40137 -12.61888,-9.16757 -21.17319,-9.15507 -14.81366,0.0217 -26.3026,9.24539 -29.54114,23.7167 L 365.68174,200 H 359.84087 354 l -0.0564,13.25 c -0.0321,7.54192 -0.57063,14.71744 -1.25,16.65634 -2.18965,6.24911 -9.35759,9.36175 -15.36808,6.67351 z M 353,205.5 V 200 h -11 -11 v 5.5 5.5 h 11 11 z m 32.0964,22.23526 c -5.07756,-2.60946 -6.49765,-6.03662 -6.9266,-16.71624 l -0.39868,-9.92604 -5.39057,-0.37869 -5.39056,-0.3787 5.755,0.0822 5.75501,0.0822 0.30226,5.25 0.30226,5.25 H 390 400.89548 l 0.30226,-5.25 0.30226,-5.25 11.5,-0.0476 11.5,-0.0476 -11.13772,0.32835 -11.13772,0.32835 -0.40734,10.21923 c -0.25148,6.30878 -0.93264,11.03564 -1.78008,12.35275 -3.08772,4.79896 -9.92933,6.67721 -14.94074,4.10175 z"
             id="path7438"
             transform="matrix(0.01277187,0,0,0.01277187,66.900451,40.068245)" /><path
             style="fill:#9ea087;fill-opacity:1"
             d="m 220.75,440.29427 c 1.2375,-0.23836 3.2625,-0.23836 4.5,0 1.2375,0.23835 0.225,0.43337 -2.25,0.43337 -2.475,0 -3.4875,-0.19502 -2.25,-0.43337 z m 10,0 c 1.2375,-0.23836 3.2625,-0.23836 4.5,0 1.2375,0.23835 0.225,0.43337 -2.25,0.43337 -2.475,0 -3.4875,-0.19502 -2.25,-0.43337 z m -30.9375,-1.97738 c 0.72187,-0.28887 1.58437,-0.25335 1.91667,0.0789 0.33229,0.33229 -0.25834,0.56864 -1.3125,0.52522 -1.16495,-0.048 -1.4019,-0.28494 -0.60417,-0.60416 z m 55,0 c 0.72187,-0.28887 1.58438,-0.25335 1.91667,0.0789 0.33229,0.33229 -0.25834,0.56864 -1.3125,0.52522 -1.16495,-0.048 -1.4019,-0.28494 -0.60417,-0.60416 z M 251,411.62244 c 0,-0.20765 0.7875,-0.99515 1.75,-1.75 1.58606,-1.24387 1.62143,-1.2085 0.37756,0.37756 C 251.82119,411.91575 251,412.44548 251,411.62244 Z M 108.87244,397.25 c -1.24387,-1.58606 -1.2085,-1.62143 0.37756,-0.37756 1.66575,1.30637 2.19548,2.12756 1.37244,2.12756 -0.20765,0 -0.99515,-0.7875 -1.75,-1.75 z M 353,391.5 c 1.29175,-1.375 2.57363,-2.5 2.84863,-2.5 0.275,0 -0.55688,1.125 -1.84863,2.5 -1.29175,1.375 -2.57363,2.5 -2.84863,2.5 -0.275,0 0.55688,-1.125 1.84863,-2.5 z m -148.92105,-0.0833 c 0.048,-1.16495 0.28494,-1.4019 0.60416,-0.60417 0.28887,0.72187 0.25335,1.58438 -0.0789,1.91667 -0.3323,0.33229 -0.56864,-0.25834 -0.52522,-1.3125 z m 59,-1 c 0.048,-1.16495 0.28494,-1.4019 0.60416,-0.60417 0.28887,0.72187 0.25335,1.58438 -0.0789,1.91667 -0.33229,0.33229 -0.56864,-0.25834 -0.52522,-1.3125 z M 97.452948,386.75 93.5,382.5 l 4.25,3.95295 c 3.95246,3.6762 4.70953,4.54705 3.95295,4.54705 -0.16338,0 -2.075881,-1.9125 -4.250002,-4.25 z m 165.626002,-2.33333 c 0.048,-1.16495 0.28494,-1.4019 0.60416,-0.60417 0.28887,0.72187 0.25335,1.58438 -0.0789,1.91667 -0.33229,0.33229 -0.56864,-0.25834 -0.52522,-1.3125 z m -59,-2 c 0.048,-1.16495 0.28494,-1.4019 0.60416,-0.60417 0.28887,0.72187 0.25335,1.58438 -0.0789,1.91667 -0.3323,0.33229 -0.56864,-0.25834 -0.52522,-1.3125 z M 363,381.5 c 1.29175,-1.375 2.57363,-2.5 2.84863,-2.5 0.275,0 -0.55688,1.125 -1.84863,2.5 -1.29175,1.375 -2.57363,2.5 -2.84863,2.5 -0.275,0 0.55688,-1.125 1.84863,-2.5 z M 86.404988,374.75 84.5,372.5 l 2.25,1.90499 C 88.864445,376.19521 89.455241,377 88.654988,377 c -0.189757,0 -1.202257,-1.0125 -2.25,-2.25 z M 232.75,357.33772 c 0.6875,-0.27741 1.8125,-0.27741 2.5,0 0.6875,0.27741 0.125,0.50439 -1.25,0.50439 -1.375,0 -1.9375,-0.22698 -1.25,-0.50439 z M 103.07895,340.41667 c 0.048,-1.16495 0.28494,-1.4019 0.60416,-0.60417 0.28887,0.72187 0.25335,1.58438 -0.0789,1.91667 -0.3323,0.33229 -0.56864,-0.25834 -0.52522,-1.3125 z m 59,-1 c 0.048,-1.16495 0.28494,-1.4019 0.60416,-0.60417 0.28887,0.72187 0.25335,1.58438 -0.0789,1.91667 -0.3323,0.33229 -0.56864,-0.25834 -0.52522,-1.3125 z M 357.19495,336.5 c 0.0204,-1.65 0.2445,-2.20394 0.49804,-1.23097 0.25354,0.97297 0.23687,2.32297 -0.0371,3 -0.27393,0.67703 -0.48137,-0.11903 -0.46099,-1.76903 z M 218.25,336.31067 c 0.9625,-0.25152 2.5375,-0.25152 3.5,0 0.9625,0.25153 0.175,0.45733 -1.75,0.45733 -1.925,0 -2.7125,-0.2058 -1.75,-0.45733 z m -56.17105,-2.894 c 0.048,-1.16495 0.28494,-1.4019 0.60416,-0.60417 0.28887,0.72187 0.25335,1.58438 -0.0789,1.91667 -0.3323,0.33229 -0.56864,-0.25834 -0.52522,-1.3125 z m -59,-1 c 0.048,-1.16495 0.28494,-1.4019 0.60416,-0.60417 0.28887,0.72187 0.25335,1.58438 -0.0789,1.91667 -0.3323,0.33229 -0.56864,-0.25834 -0.52522,-1.3125 z M 240,328.62244 c 0,-0.20765 0.7875,-0.99515 1.75,-1.75 1.58606,-1.24387 1.62143,-1.2085 0.37756,0.37756 C 240.82119,328.91575 240,329.44548 240,328.62244 Z M 249.15789,311 c 0,-1.375 0.22698,-1.9375 0.50439,-1.25 0.27741,0.6875 0.27741,1.8125 0,2.5 -0.27741,0.6875 -0.50439,0.125 -0.50439,-1.25 z m -59,-1 c 0,-1.375 0.22698,-1.9375 0.50439,-1.25 0.27741,0.6875 0.27741,1.8125 0,2.5 -0.27741,0.6875 -0.50439,0.125 -0.50439,-1.25 z m -0.0789,-6.58333 c 0.048,-1.16495 0.28494,-1.4019 0.60416,-0.60417 0.28887,0.72187 0.25335,1.58438 -0.0789,1.91667 -0.3323,0.33229 -0.56864,-0.25834 -0.52522,-1.3125 z m 59,-1 c 0.048,-1.16495 0.28494,-1.4019 0.60416,-0.60417 0.28887,0.72187 0.25335,1.58438 -0.0789,1.91667 -0.3323,0.33229 -0.56864,-0.25834 -0.52522,-1.3125 z m 160,-11 c 0.048,-1.16495 0.28494,-1.4019 0.60416,-0.60417 0.28887,0.72187 0.25335,1.58438 -0.0789,1.91667 -0.33229,0.33229 -0.56864,-0.25834 -0.52522,-1.3125 z m -73.26645,-6.09978 c 0.72187,-0.28887 1.58438,-0.25335 1.91667,0.0789 0.33229,0.33229 -0.25834,0.56864 -1.3125,0.52522 -1.16495,-0.048 -1.4019,-0.28494 -0.60417,-0.60416 z m 7,0 c 0.72187,-0.28887 1.58438,-0.25335 1.91667,0.0789 0.33229,0.33229 -0.25834,0.56864 -1.3125,0.52522 -1.16495,-0.048 -1.4019,-0.28494 -0.60417,-0.60416 z m 67.26645,-0.90022 c 0.048,-1.16495 0.28494,-1.4019 0.60416,-0.60417 0.28887,0.72187 0.25335,1.58438 -0.0789,1.91667 -0.33229,0.33229 -0.56864,-0.25834 -0.52522,-1.3125 z M 237.87244,283.25 c -1.24387,-1.58606 -1.2085,-1.62143 0.37756,-0.37756 0.9625,0.75485 1.75,1.54235 1.75,1.75 0,0.82304 -0.82119,0.29331 -2.12756,-1.37244 z M 45.078947,282.41667 c 0.04798,-1.16495 0.284941,-1.4019 0.604167,-0.60417 0.288871,0.72187 0.253344,1.58438 -0.07895,1.91667 -0.332292,0.33229 -0.568641,-0.25834 -0.52522,-1.3125 z M 357,280.62244 c 0,-0.20765 0.7875,-0.99515 1.75,-1.75 1.58606,-1.24387 1.62143,-1.2085 0.37756,0.37756 C 357.82119,280.91575 357,281.44548 357,280.62244 Z M 44.078947,275.41667 c 0.04798,-1.16495 0.284941,-1.4019 0.604167,-0.60417 0.288871,0.72187 0.253344,1.58438 -0.07895,1.91667 -0.332292,0.33229 -0.568641,-0.25834 -0.52522,-1.3125 z M 97.8125,274.31689 c 0.721875,-0.28887 1.584375,-0.25335 1.916667,0.0789 0.332293,0.33229 -0.258334,0.56864 -1.3125,0.52522 -1.164943,-0.048 -1.4019,-0.28494 -0.604167,-0.60416 z M 412.27236,265 c 0,-2.475 0.19502,-3.4875 0.43337,-2.25 0.23836,1.2375 0.23836,3.2625 0,4.5 -0.23835,1.2375 -0.43337,0.225 -0.43337,-2.25 z m -330.399915,1.25 c -1.243871,-1.58606 -1.208501,-1.62143 0.377555,-0.37756 0.9625,0.75485 1.75,1.54235 1.75,1.75 0,0.82304 -0.821186,0.29331 -2.127555,-1.37244 z M 43.666325,250 C 45.857933,200.84764 64.128988,158.96409 98.190538,125.0117 126.25501,97.037171 159.45885,80.28986 200.50613,73.405896 c 13.46494,-2.25818 42.28844,-2.238739 55.99387,0.03777 36.71528,6.098497 71.26458,22.689017 95.28729,45.756814 l 6.33842,6.08646 -3.56673,3.65266 c -2.86372,2.93271 -3.31958,3.90162 -2.31285,4.91577 1.0065,1.01393 0.95538,1.14963 -0.25912,0.68784 -0.98214,-0.37344 -3.73377,1.66541 -7.84244,5.81092 l -6.32944,6.38621 -5.00806,-3.37017 c -2.75442,-1.85359 -5.97533,-3.4057 -7.15756,-3.44912 -1.44096,-0.0529 -1.65506,-0.2559 -0.64951,-0.61578 2.04635,-0.73238 15.00092,-13.49881 14.99624,-14.77845 -0.006,-1.68068 -17.71789,-13.01954 -29.51728,-18.89664 C 293.1639,97.005811 274.52388,91.104535 254.5,87.907707 243.993,86.230256 213.87847,86.20947 202.5,87.871816 148.68928,95.733331 102.01507,125.83315 72.326044,171.81994 57.215834,195.22489 48.755895,219.27985 44.479043,251 l -1.280892,9.5 z m 29.565678,-5 c 0,-1.925 0.205795,-2.7125 0.457323,-1.75 0.251527,0.9625 0.251527,2.5375 0,3.5 -0.251528,0.9625 -0.457323,0.175 -0.457323,-1.75 z M 200.8125,233.31689 c 0.72187,-0.28887 1.58437,-0.25335 1.91667,0.0789 0.33229,0.33229 -0.25834,0.56864 -1.3125,0.52522 -1.16495,-0.048 -1.4019,-0.28494 -0.60417,-0.60416 z m 6,0 c 0.72187,-0.28887 1.58437,-0.25335 1.91667,0.0789 0.33229,0.33229 -0.25834,0.56864 -1.3125,0.52522 -1.16495,-0.048 -1.4019,-0.28494 -0.60417,-0.60416 z M 121.87244,222.25 c -1.24387,-1.58606 -1.2085,-1.62143 0.37756,-0.37756 0.9625,0.75485 1.75,1.54235 1.75,1.75 0,0.82304 -0.82119,0.29331 -2.12756,-1.37244 z M 99.75,215.33772 c 0.6875,-0.27741 1.8125,-0.27741 2.5,0 0.6875,0.27741 0.125,0.50439 -1.25,0.50439 -1.375,0 -1.9375,-0.22698 -1.25,-0.50439 z m 5.0625,-0.0208 c 0.72187,-0.28887 1.58437,-0.25335 1.91667,0.0789 0.33229,0.33229 -0.25834,0.56864 -1.3125,0.52522 -1.16495,-0.048 -1.4019,-0.28494 -0.60417,-0.60416 z M 269.5,196 c 9.88854,-9.9 18.08479,-18 18.2139,-18 0.12911,0 0.97393,1.4625 1.87739,3.25 0.90346,1.7875 2.5817,4.2766 3.72943,5.53133 l 2.08677,2.28132 -12.43874,12.46868 L 270.53001,214 h -9.50459 -9.50458 z m 61.5,9.5 V 200 h 11 11 v 5.5 5.5 h -11 -11 z m 48,0.5 v -5 h 11 11 v 5 5 h -11 -11 z m -144.768,-2 c 0,-1.925 0.2058,-2.7125 0.45733,-1.75 0.25152,0.9625 0.25152,2.5375 0,3.5 -0.25153,0.9625 -0.45733,0.175 -0.45733,-1.75 z m -59.15305,-5.58333 c 0.048,-1.16495 0.28494,-1.4019 0.60416,-0.60417 0.28887,0.72187 0.25335,1.58437 -0.0789,1.91667 -0.3323,0.33229 -0.56864,-0.25834 -0.52522,-1.3125 z m 191,-1 c 0.048,-1.16495 0.28494,-1.4019 0.60416,-0.60417 0.28887,0.72187 0.25335,1.58437 -0.0789,1.91667 -0.33229,0.33229 -0.56864,-0.25834 -0.52522,-1.3125 z M 468.27236,195 c 0,-2.475 0.19502,-3.4875 0.43337,-2.25 0.23836,1.2375 0.23836,3.2625 0,4.5 -0.23835,1.2375 -0.43337,0.225 -0.43337,-2.25 z m -43.19341,0.41667 c 0.048,-1.16495 0.28494,-1.4019 0.60416,-0.60417 0.28887,0.72187 0.25335,1.58437 -0.0789,1.91667 -0.33229,0.33229 -0.56864,-0.25834 -0.52522,-1.3125 z M 151,188.5 c 1.29175,-1.375 2.57363,-2.5 2.84863,-2.5 0.275,0 -0.55688,1.125 -1.84863,2.5 -1.29175,1.375 -2.57363,2.5 -2.84863,2.5 -0.275,0 0.55688,-1.125 1.84863,-2.5 z m 73.87244,-6.25 c -1.24387,-1.58606 -1.2085,-1.62143 0.37756,-0.37756 0.9625,0.75485 1.75,1.54235 1.75,1.75 0,0.82304 -0.82119,0.29331 -2.12756,-1.37244 z m 191.53255,-3.5 -1.90499,-2.25 2.25,1.90499 c 1.2375,1.04774 2.25,2.06024 2.25,2.25 0,0.80025 -0.80479,0.20945 -2.59501,-1.90499 z M 199.8125,174.31689 c 0.72187,-0.28887 1.58437,-0.25335 1.91667,0.0789 0.33229,0.33229 -0.25834,0.56864 -1.3125,0.52522 -1.16495,-0.048 -1.4019,-0.28494 -0.60417,-0.60416 z m 9,0 c 0.72187,-0.28887 1.58437,-0.25335 1.91667,0.0789 0.33229,0.33229 -0.25834,0.56864 -1.3125,0.52522 -1.16495,-0.048 -1.4019,-0.28494 -0.60417,-0.60416 z m 257.26645,-1.90022 c 0.048,-1.16495 0.28494,-1.4019 0.60416,-0.60417 0.28887,0.72187 0.25335,1.58437 -0.0789,1.91667 -0.33229,0.33229 -0.56864,-0.25834 -0.52522,-1.3125 z M 286.232,168 c 0,-1.925 0.2058,-2.7125 0.45733,-1.75 0.25152,0.9625 0.25152,2.5375 0,3.5 -0.25153,0.9625 -0.45733,0.175 -0.45733,-1.75 z m 108.52966,2.29274 c 1.24391,-0.23919 3.04391,-0.23011 4,0.0202 0.95609,0.25029 -0.0617,0.446 -2.26166,0.4349 -2.2,-0.0111 -2.98225,-0.21589 -1.73834,-0.45508 z M 160.232,167 c 0,-1.925 0.2058,-2.7125 0.45733,-1.75 0.25152,0.9625 0.25152,2.5375 0,3.5 -0.25153,0.9625 -0.45733,0.175 -0.45733,-1.75 z m 88.5805,-6.68311 c 0.72187,-0.28887 1.58437,-0.25335 1.91667,0.0789 0.33229,0.33229 -0.25834,0.56864 -1.3125,0.52522 -1.16495,-0.048 -1.4019,-0.28494 -0.60417,-0.60416 z M 227.87244,151.25 c -1.24387,-1.58606 -1.2085,-1.62143 0.37756,-0.37756 0.9625,0.75485 1.75,1.54235 1.75,1.75 0,0.82304 -0.82119,0.29331 -2.12756,-1.37244 z M 109.5,146 c 0.99549,-1.1 2.03498,-2 2.30998,-2 0.275,0 -0.31449,0.9 -1.30998,2 -0.99549,1.1 -2.03498,2 -2.30998,2 -0.275,0 0.31449,-0.9 1.30998,-2 z m 184.5,1.62244 c 0,-0.20765 0.7875,-0.99515 1.75,-1.75 1.58606,-1.24387 1.62143,-1.2085 0.37756,0.37756 C 294.82119,147.91575 294,148.44548 294,147.62244 Z m 72.8125,-6.30555 c 0.72187,-0.28887 1.58438,-0.25335 1.91667,0.0789 0.33229,0.33229 -0.25834,0.56864 -1.3125,0.52522 -1.16495,-0.048 -1.4019,-0.28494 -0.60417,-0.60416 z m 9,0 c 0.72187,-0.28887 1.58438,-0.25335 1.91667,0.0789 0.33229,0.33229 -0.25834,0.56864 -1.3125,0.52522 -1.16495,-0.048 -1.4019,-0.28494 -0.60417,-0.60416 z m -65,-3 c 0.72187,-0.28887 1.58438,-0.25335 1.91667,0.0789 0.33229,0.33229 -0.25834,0.56864 -1.3125,0.52522 -1.16495,-0.048 -1.4019,-0.28494 -0.60417,-0.60416 z m 9,0 c 0.72187,-0.28887 1.58438,-0.25335 1.91667,0.0789 0.33229,0.33229 -0.25834,0.56864 -1.3125,0.52522 -1.16495,-0.048 -1.4019,-0.28494 -0.60417,-0.60416 z M 129.25,137.31067 c 0.9625,-0.25152 2.5375,-0.25152 3.5,0 0.9625,0.25153 0.175,0.45733 -1.75,0.45733 -1.925,0 -2.7125,-0.2058 -1.75,-0.45733 z M 279.19495,130.5 c 0.0204,-1.65 0.2445,-2.20394 0.49804,-1.23097 0.25354,0.97297 0.23687,2.32297 -0.0371,3 -0.27393,0.67703 -0.48137,-0.11903 -0.46099,-1.76903 z m 121.884,-14.08333 c 0.048,-1.16495 0.28494,-1.4019 0.60416,-0.60417 0.28887,0.72187 0.25335,1.58437 -0.0789,1.91667 -0.33229,0.33229 -0.56864,-0.25834 -0.52522,-1.3125 z m 0,-9 c 0.048,-1.16495 0.28494,-1.4019 0.60416,-0.60417 0.28887,0.72187 0.25335,1.58437 -0.0789,1.91667 -0.33229,0.33229 -0.56864,-0.25834 -0.52522,-1.3125 z M 424.87244,81.25 C 423.62857,79.663944 423.66394,79.628574 425.25,80.872445 426.91575,82.178814 427.44548,83 426.62244,83 c -0.20765,0 -0.99515,-0.7875 -1.75,-1.75 z m -8.46745,-9.5 -1.90499,-2.25 2.25,1.904988 C 418.86444,73.195206 419.45524,74 418.65499,74 c -0.18976,0 -1.20226,-1.0125 -2.25,-2.25 z"
             id="path7436"
             transform="matrix(0.01277187,0,0,0.01277187,66.900451,40.068245)" /><path
             style="fill:#a8998d;fill-opacity:1"
             d="M 200.39445,482.43881 C 167.22492,478.41652 131.13933,465.31319 103.5,447.25468 48.979929,411.63331 12.634458,354.76283 2.3379158,288.96435 -0.12460839,273.22797 -0.12775898,239.08763 2.3318478,223.21002 22.71621,91.62197 147.42641,5.2010123 276.69493,33.083474 c 24.4131,5.265763 55.36296,18.182143 75.80507,31.635917 9.39405,6.182601 28.94902,21.494323 30.1103,23.576639 0.36929,0.662184 -0.16878,0.411077 -1.1957,-0.558014 -1.80113,-1.699696 -2.40208,-1.227873 -16.99954,13.346794 l -15.1324,15.10877 -8.39133,-6.40905 C 315.74755,90.580465 288.16696,78.703621 256.5,73.443663 242.79457,71.167157 213.97107,71.147716 200.50613,73.405896 159.45885,80.28986 126.25501,97.037171 98.190538,125.0117 77.963453,145.17396 64.041281,167.01247 54.210117,194 42.231921,226.88135 40.34307,266.42524 49.07557,301.49387 c 14.716715,59.10049 60.54043,109.13304 118.02621,128.86675 5.83098,2.00166 11.45598,3.6679 12.5,3.70277 1.68799,0.0564 1.65947,0.15968 -0.25759,0.93293 -4.2103,1.69822 -3.86958,9.31393 0.56915,12.72188 4.78566,3.67431 12.48666,-0.66892 12.48666,-7.04225 v -3.26937 l 8.05,1.39548 c 11.8541,2.05494 43.45794,1.94926 56.04387,-0.18739 40.70429,-6.91019 73.78437,-23.78407 102.06055,-52.06025 32.96025,-32.96025 50.98129,-73.10423 54.08623,-120.48346 L 413.30064,256 h 18.4266 18.42661 l 2.92307,2.92308 c 3.53288,3.53288 3.75248,7.64321 1.37711,25.7757 -7.96778,60.82237 -39.02967,114.75835 -87.80341,152.46216 -25.10242,19.40506 -58.75455,35.02568 -89.95569,41.75559 -23.00169,4.96133 -53.00986,6.3466 -76.30048,3.52228 z m 132.68247,-39.36189 c 3.41886,-3.41886 3.72506,-6.78765 0.9389,-10.32968 -5.93994,-7.55141 -17.17571,-0.78938 -13.44223,8.08994 2.35643,5.6043 8.10841,6.63466 12.50333,2.23974 z M 44.928479,355.53699 c 3.825146,-1.97806 5.212869,-6.39911 3.45034,-10.99219 -0.908625,-2.36784 -6.212335,-4.8034 -8.958846,-4.11407 -8.102155,2.03351 -8.391145,12.94914 -0.419973,15.86304 2.371175,0.8668 2.925702,0.79601 5.928479,-0.75678 z M 423.04283,342 c 0.48359,0 1.79679,-0.98485 2.91821,-2.18856 C 430.49489,334.94493 426.75825,326 420.19148,326 416.00684,326 412,330.04913 412,334.27794 c 0,4.55666 5.15094,9.30578 8.83179,8.14283 C 421.56427,342.18935 422.55924,342 423.04283,342 Z M 78.086657,145.7182 C 84.50369,140.79136 81.691406,131 73.859281,131 c -4.080512,0 -5.78422,0.95417 -7.447791,4.17116 -3.672639,7.1021 5.440018,15.33423 11.675167,10.54704 z M 351.75,90.363423 c 4.144,-4.55831 1.84211,-11.423756 -4.35142,-12.978234 -8.95466,-2.247477 -13.49862,11.501742 -5.01423,15.172214 3.8209,1.652982 6.42236,1.043568 9.36565,-2.19398 z M 199.0225,54.244262 c 5.75159,-7.311951 -3.25887,-16.96957 -10.86311,-11.643348 -5.27164,3.692399 -4.65871,11.444747 1.09617,13.864495 3.883,1.632678 7.35696,0.842648 9.76694,-2.221147 z m 64.05645,333.172408 c 0.048,-1.16495 0.28494,-1.4019 0.60416,-0.60417 0.28887,0.72187 0.25335,1.58438 -0.0789,1.91667 -0.33229,0.33229 -0.56864,-0.25834 -0.52522,-1.3125 z m -101,-51 c 0.048,-1.16495 0.28494,-1.4019 0.60416,-0.60417 0.28887,0.72187 0.25335,1.58438 -0.0789,1.91667 -0.3323,0.33229 -0.56864,-0.25834 -0.52522,-1.3125 z m 28,-30 c 0.048,-1.16495 0.28494,-1.4019 0.60416,-0.60417 0.28887,0.72187 0.25335,1.58438 -0.0789,1.91667 -0.3323,0.33229 -0.56864,-0.25834 -0.52522,-1.3125 z m 13.73355,-73.09978 c 0.72187,-0.28887 1.58437,-0.25335 1.91667,0.0789 0.33229,0.33229 -0.25834,0.56864 -1.3125,0.52522 -1.16495,-0.048 -1.4019,-0.28494 -0.60417,-0.60416 z M 383.75,200.2596 c 3.4375,-0.19527 9.0625,-0.19527 12.5,0 3.4375,0.19527 0.625,0.35504 -6.25,0.35504 -6.875,0 -9.6875,-0.15977 -6.25,-0.35504 z m 85.24145,-2.5096 c -0.005,-1.2375 -0.46463,-7.403 -1.02205,-13.70111 -3.62667,-40.97639 -19.56795,-77.06157 -48.42672,-109.620193 l -4.49501,-5.071303 13.30909,-13.178697 c 11.89615,-11.779603 13.67185,-13.176336 16.72616,-13.156461 4.09164,0.02663 5.77865,1.334722 13.51282,10.477764 29.52167,34.899414 47.70877,78.42932 52.37459,125.35595 1.44056,14.48851 1.39435,14.93322 -1.89341,18.22097 L 506.15385,200 H 487.57692 469 l -0.009,-2.25 z m -0.0309,-99.728891 c 2.20214,-1.178549 4.19147,-6.406604 3.34823,-8.799285 -2.88205,-8.177758 -13.81007,-8.041382 -15.87806,0.198149 -0.64074,2.55291 1.71141,8.071107 3.79823,8.910733 2.18128,0.877632 6.82061,0.713135 8.7316,-0.309597 z M 315.5,168 c 11.54018,-11.55 21.20714,-21 21.48214,-21 0.275,0 -8.94196,9.45 -20.48214,21 -11.54018,11.55 -21.20714,21 -21.48214,21 -0.275,0 8.94196,-9.45 20.48214,-21 z m 56,-56 c 11.54018,-11.55 21.20714,-21 21.48214,-21 0.275,0 -8.94196,9.45 -20.48214,21 -11.54018,11.55 -21.20714,21 -21.48214,21 -0.275,0 8.94196,-9.45 20.48214,-21 z m -17.09501,9.75 -1.90499,-2.25 2.25,1.90499 c 2.11444,1.79022 2.70524,2.59501 1.90499,2.59501 -0.18976,0 -1.20226,-1.0125 -2.25,-2.25 z"
             id="path7434"
             transform="matrix(0.01277187,0,0,0.01277187,66.900451,40.068245)" /><path
             style="fill:#988678;fill-opacity:1"
             d="m 185,448.61663 c 0,-0.21085 0.90062,-0.61888 2.00138,-0.90674 1.10076,-0.28785 1.7492,-0.11534 1.44098,0.38337 C 187.90411,448.96417 185,449.4057 185,448.61663 Z m 141.75,-3.27891 c 0.6875,-0.27741 1.8125,-0.27741 2.5,0 0.6875,0.27741 0.125,0.50439 -1.25,0.50439 -1.375,0 -1.9375,-0.22698 -1.25,-0.50439 z M 321.87244,443.25 c -1.24387,-1.58606 -1.2085,-1.62143 0.37756,-0.37756 1.66575,1.30637 2.19548,2.12756 1.37244,2.12756 -0.20765,0 -0.99515,-0.7875 -1.75,-1.75 z M 176.15789,441 c 0,-1.375 0.22698,-1.9375 0.50439,-1.25 0.27741,0.6875 0.27741,1.8125 0,2.5 -0.27741,0.6875 -0.50439,0.125 -0.50439,-1.25 z m 15.92106,-0.58333 c 0.048,-1.16495 0.28494,-1.4019 0.60416,-0.60417 0.28887,0.72187 0.25335,1.58438 -0.0789,1.91667 -0.3323,0.33229 -0.56864,-0.25834 -0.52522,-1.3125 z M 326.8125,429.31689 c 0.72187,-0.28887 1.58438,-0.25335 1.91667,0.0789 0.33229,0.33229 -0.25834,0.56864 -1.3125,0.52522 -1.16495,-0.048 -1.4019,-0.28494 -0.60417,-0.60416 z m -286,-73 c 0.721875,-0.28887 1.584375,-0.25335 1.916667,0.0789 0.332291,0.33229 -0.258334,0.56864 -1.3125,0.52522 -1.164943,-0.048 -1.4019,-0.28494 -0.604167,-0.60416 z m -7.353619,-4.38342 c -0.362533,-0.58659 -0.444683,-1.281 -0.182555,-1.54313 0.262128,-0.26213 0.743066,0.21781 1.068751,1.06653 0.676184,1.76211 0.09985,2.07206 -0.886196,0.4766 z M 39.75,340.33772 c 0.6875,-0.27741 1.8125,-0.27741 2.5,0 0.6875,0.27741 0.125,0.50439 -1.25,0.50439 -1.375,0 -1.9375,-0.22698 -1.25,-0.50439 z m 372.70888,-2.40425 c -0.36253,-0.58659 -0.44468,-1.281 -0.18255,-1.54313 0.26212,-0.26213 0.74306,0.21781 1.06875,1.06653 0.67618,1.76211 0.0999,2.07206 -0.8862,0.4766 z M 424.87244,328.25 c -1.24387,-1.58606 -1.2085,-1.62143 0.37756,-0.37756 0.9625,0.75485 1.75,1.54235 1.75,1.75 0,0.82304 -0.82119,0.29331 -2.12756,-1.37244 z m -7.05994,-1.93311 c 0.72187,-0.28887 1.58438,-0.25335 1.91667,0.0789 0.33229,0.33229 -0.25834,0.56864 -1.3125,0.52522 -1.16495,-0.048 -1.4019,-0.28494 -0.60417,-0.60416 z M 69.507079,146.01145 c -0.350339,-0.56686 0.05106,-0.7345 0.940983,-0.39301 1.732417,0.66479 2.049387,1.38156 0.610955,1.38156 -0.517541,0 -1.215913,-0.44485 -1.551938,-0.98855 z M 81.157895,139 c 0,-1.375 0.226973,-1.9375 0.504386,-1.25 0.277412,0.6875 0.277412,1.8125 0,2.5 -0.277413,0.6875 -0.504386,0.125 -0.504386,-1.25 z m -16.078948,-0.58333 c 0.04798,-1.16495 0.284941,-1.4019 0.604167,-0.60417 0.288871,0.72187 0.253344,1.58437 -0.07895,1.91667 -0.332292,0.33229 -0.568641,-0.25834 -0.52522,-1.3125 z M 78.872445,133.25 c -1.243871,-1.58606 -1.208501,-1.62143 0.377555,-0.37756 0.9625,0.75485 1.75,1.54235 1.75,1.75 0,0.82304 -0.821186,0.29331 -2.127555,-1.37244 z m 274.858515,-12.5618 -4.76904,-4.1882 15.2881,-15.25732 15.2881,-15.257324 4.7874,4.257322 L 389.11291,94.5 373.80646,109.6882 358.5,124.8764 Z M 456.15789,91 c 0,-1.375 0.22698,-1.9375 0.50439,-1.25 0.27741,0.6875 0.27741,1.8125 0,2.5 -0.27741,0.6875 -0.50439,0.125 -0.50439,-1.25 z M 353.07895,83.416667 c 0.048,-1.164943 0.28494,-1.4019 0.60416,-0.604167 0.28887,0.721875 0.25335,1.584375 -0.0789,1.916667 -0.33229,0.332291 -0.56864,-0.258334 -0.52522,-1.3125 z M 339,80.622445 c 0,-0.207656 0.7875,-0.995156 1.75,-1.75 1.58606,-1.243871 1.62143,-1.208501 0.37756,0.377555 C 339.82119,80.915748 339,81.445479 339,80.622445 Z m 5.26903,-3.315436 c 0.97297,-0.253543 2.32297,-0.236869 3,0.03705 0.67703,0.273923 -0.11903,0.481368 -1.76903,0.460988 -1.65,-0.02038 -2.20394,-0.244498 -1.23097,-0.498042 z M 197.5,55 c 0.99549,-1.1 2.03498,-2 2.30998,-2 0.275,0 -0.31449,0.9 -1.30998,2 -0.99549,1.1 -2.03498,2 -2.30998,2 -0.275,0 0.31449,-0.9 1.30998,-2 z m 2.69495,-5.5 c 0.0204,-1.65 0.2445,-2.203936 0.49804,-1.230968 0.25354,0.972967 0.23687,2.322967 -0.0371,3 C 200.38201,51.946064 200.17457,51.15 200.19495,49.5 Z m -16.116,-0.08333 c 0.048,-1.164943 0.28494,-1.4019 0.60416,-0.604167 0.28887,0.721875 0.25335,1.584375 -0.0789,1.916667 -0.3323,0.332291 -0.56864,-0.258334 -0.52522,-1.3125 z M 194.5,42 c -1.63041,-0.70061 -1.68751,-0.872418 -0.30902,-0.929715 C 195.12102,41.031628 196.16008,41.45 196.5,42 c 0.71066,1.149879 0.67591,1.149879 -2,0 z"
             id="path7432"
             transform="matrix(0.01277187,0,0,0.01277187,66.900451,40.068245)" /><path
             style="fill:#907d6e;fill-opacity:1"
             d="m 181.31537,447.99302 c -4.11694,-1.65875 -5.94392,-9.39655 -2.82902,-11.98169 2.17966,-1.80896 12.86978,0.88386 13.34705,3.36209 0.71703,3.72323 -0.88547,6.75039 -4.33687,8.19248 -1.88776,0.78875 -3.55925,1.40558 -3.71441,1.37071 -0.15517,-0.0349 -1.2652,-0.45948 -2.46675,-0.94359 z m 140.85894,-5.30747 c -5.87636,-6.25511 1.08387,-15.20986 9.3551,-12.03589 2.6621,1.02154 4.42178,6.1919 3.2507,9.55128 -1.81568,5.20847 -8.76085,6.57737 -12.6058,2.48461 z M 37.22896,355.33071 c -2.156633,-0.86772 -4.318296,-6.12658 -3.635915,-8.84541 1.439027,-5.73354 9.680703,-7.49533 13.334375,-2.85044 2.629571,3.34296 2.629571,6.38732 0,9.73028 -2.009241,2.55434 -6.149575,3.39345 -9.69846,1.96557 z m 379,-14 c -2.10944,-0.84873 -4.31804,-6.1276 -3.66024,-8.74848 1.52285,-6.06752 9.04462,-7.89564 13.09793,-3.18338 3.00579,3.49444 2.96318,7.06223 -0.1212,10.1466 -2.32383,2.32384 -6.15381,3.05775 -9.31649,1.78526 z M 70.5,145.86944 C 67.339961,144.10284 66,141.87314 66,138.38145 66,134.70184 69.761294,131 73.5,131 c 1.226655,0 3.415969,0.93266 4.865141,2.07258 6.64231,5.22484 -0.531417,16.89675 -7.865141,12.79686 z M 459.63486,96.92742 C 457.62028,95.342754 457,93.966757 457,91.082407 457,86.300924 459.77174,83.6 464.67858,83.6 c 6.80605,0 9.8133,7.999025 4.86687,12.945455 -2.99969,2.999691 -6.41533,3.131334 -9.91059,0.381965 z M 340.07258,90.365141 C 335.88351,85.039602 339.08935,78 345.70367,78 c 5.16352,0 7.80336,3.294684 7.41148,9.25 -0.37154,5.646334 -9.36238,7.793743 -13.04257,3.115141 z M 187.63486,54.92742 c -4.39317,-3.455665 -3.46586,-10.254091 1.69463,-12.423913 8.01849,-3.371523 14.65073,6.408642 8.35606,12.322179 -2.91298,2.736598 -6.65288,2.774453 -10.05069,0.101734 z"
             id="path7430"
             transform="matrix(0.01277187,0,0,0.01277187,66.900451,40.068245)" /><path
             style="fill:#7f7f7d;fill-opacity:1"
             d="M 225.82055,415.60501 C 211.71093,411.8058 202.48,396.79256 205.15843,382 c 1.84098,-10.16746 7.33376,-17.05386 17.20307,-21.56782 5.09689,-2.33118 6.79267,-2.62006 13,-2.21462 11.69074,0.76361 19.51916,5.85364 24.58047,15.98223 8.52196,17.05395 -0.66607,37.04565 -19.13479,41.63426 -5.79062,1.4387 -8.97357,1.39006 -14.98663,-0.22904 z M 122.78059,364.12336 c -7.48833,-3.02561 -12.36042,-7.52445 -15.87069,-14.65481 -12.209896,-24.80183 12.96702,-50.90588 38.29291,-39.70304 18.26516,8.07955 22.63217,33.33285 8.25108,47.71394 -7.60377,7.60376 -21.07561,10.5218 -30.6733,6.64391 z m 11.14683,-24.75822 C 140.47676,331.039 129.2495,321.44895 122.02768,329.20067 117.48228,334.07958 121.17804,342 128,342 c 2.97338,0 4.32876,-0.6025 5.92742,-2.63486 z m 183.4969,24.63963 c -16.26674,-6.45612 -23.62054,-24.86379 -16.08559,-40.26467 9.01386,-18.42367 32.98156,-22.21185 47.53487,-7.51305 13.74481,13.88221 9.27348,38.23015 -8.61061,46.88768 -6.41767,3.10675 -16.28467,3.49127 -22.83867,0.89004 z m 10.12113,-27.45932 c 6.22147,-6.22146 -0.67216,-16.12021 -9.00065,-12.92427 -0.89032,0.34165 -2.31375,1.96512 -3.16316,3.60771 -4.163,8.05035 5.7995,15.68088 12.16381,9.31656 z m -117.22951,-1.87153 c -5.13073,-1.89163 -12.0375,-7.26985 -14.60259,-11.37086 -3.56613,-5.70144 -4.71439,-9.90093 -4.70358,-17.20228 0.0236,-15.93124 12.63465,-28.3158 28.96498,-28.44471 19.74457,-0.15588 33.48123,18.43217 28.12054,38.05188 -2.20167,8.05795 -10.84589,16.70232 -19.20704,19.20739 -4.65445,1.3945 -14.48163,1.26676 -18.57231,-0.24142 z m 15.02674,-15.78419 c 4.67126,-2.12837 5.91432,-8.022 2.58474,-12.25487 C 226.37164,304.657 224.95395,304 222.24187,304 213.434,304 210.7593,314.61143 218.5,318.84527 c 2.56469,1.40277 3.84326,1.41108 6.84268,0.0445 z m 110.44308,-34.01502 c -6.29423,-0.93285 -13.28835,-4.54416 -17.00997,-8.78286 -3.95964,-4.50978 -7.75368,-12.73777 -7.76602,-16.84185 L 311,256 h 29.5 c 20.06372,0 29.5,0.33816 29.5,1.05718 0,0.58145 -0.52468,3.16895 -1.16595,5.75 -3.73721,15.04193 -17.67163,24.34644 -33.04829,22.06753 z m 3.52998,-11.03805 C 347.04719,269.71887 344.37575,259 335.61803,259 c -5.85977,0 -9.90849,7.74678 -6.36803,12.18455 2.83609,3.55488 6.53893,4.5305 10.06574,2.65211 z m -242.168975,0.099 C 88.678085,272.24978 81.195343,266.37784 76.839604,258 74.923238,254.31406 74.5,251.96234 74.5,245 c 0,-7.54481 0.331951,-9.09927 2.95395,-13.83272 3.511303,-6.3389 7.161468,-9.62067 14.403046,-12.94941 4.622719,-2.12493 6.404614,-2.39986 13.000004,-2.00583 8.84253,0.52829 13.77663,2.6845 19.34365,8.45323 8.16065,8.45632 10.74196,22.62466 5.93214,32.56042 -5.913,12.21464 -19.9211,19.31082 -32.986025,16.70996 z M 116.38931,247.75 c 5.44403,-4.898 2.45456,-13.75 -4.64361,-13.75 -4.10067,0 -6.37636,1.50174 -7.60154,5.01631 -1.29106,3.70353 -0.18671,7.14005 3.01523,9.38278 3.16888,2.21957 6.28503,2.00043 9.22992,-0.64909 z m 79.60422,-15.68434 c -4.58679,-1.39524 -8.45598,-3.86129 -12.13335,-7.73324 -7.04432,-7.41709 -9.78954,-16.53873 -7.82518,-26.00102 2.96352,-14.27521 14.50659,-23.65684 28.99555,-23.56613 16.16058,0.10116 27.91895,11.49899 28.79692,27.91392 0.32181,6.01685 -0.012,8.04065 -2.06191,12.5 -3.48566,7.58274 -6.97201,11.26817 -13.96535,14.76278 -5.06567,2.53135 -7.2547,3.04323 -12.70993,2.97208 -3.62466,-0.0473 -7.71819,-0.42905 -9.09675,-0.84839 z M 367.22346,195.70983 C 368.74731,182.19027 381.54448,171 395.48158,171 c 8.30878,0 14.53591,2.31112 20.37682,7.5626 5.03865,4.53018 8.41894,10.8571 9.44986,17.6874 l 0.566,3.75 H 396.30708 366.7399 Z m -243.76786,-0.0575 c -10.79908,-2.72588 -19.1538,-11.66235 -21.43789,-22.93064 -2.634729,-12.99813 3.61136,-25.45896 15.98229,-31.88437 6.35085,-3.2986 19.54361,-3.32864 25.72344,-0.0586 9.58558,5.07222 15.28899,13.71998 16.05119,24.33752 0.62916,8.76418 -1.58872,15.34845 -7.31568,21.7182 -7.23085,8.04244 -18.5009,11.46887 -29.00335,8.81786 z M 287.57023,174.625 c -2.62282,-13.22387 3.76953,-27.09526 15.21344,-33.01313 6.01831,-3.11219 21.16085,-4.00129 21.36751,-1.2546 0.0355,0.47149 -8.05243,9.02149 -17.97312,19 -17.50139,17.60339 -18.05456,18.05726 -18.60783,15.26773 z M 240.5,158.6716 C 227.70689,153.65567 220.68223,143.88683 220.60166,131 c -0.0508,-8.1175 1.50039,-12.68441 6.42372,-18.91289 10.97353,-13.882563 32.37093,-14.3381 44.41202,-0.94551 17.08138,18.99861 3.35689,49.12302 -22.22491,48.78232 -3.14187,-0.0418 -7.06249,-0.60539 -8.71249,-1.25232 z m 13.04545,-14.12615 c 6.39066,-6.39065 -0.44567,-16.20712 -9.00065,-12.92427 -1.82295,0.69953 -4.5448,5.43443 -4.5448,7.90608 0,2.59277 5.53026,7.47274 8.46853,7.47274 1.45092,0 3.71886,-1.09648 5.07692,-2.45455 z m 113.375,-3.57133 c -5.12129,-0.84941 -11.8472,-3.976 -13.91628,-6.46909 -1.20724,-1.45464 0.98252,-3.9857 19.26861,-22.27178 20.09132,-20.091324 20.68176,-20.584367 22.58646,-18.86064 3.53938,3.203095 6.42416,11.56776 6.42416,18.62739 0,18.33343 -16.19373,31.98764 -34.36295,28.97412 z"
             id="path7428"
             transform="matrix(0.01277187,0,0,0.01277187,66.900451,40.068245)" /><path
             style="fill:#6e6e6c;fill-opacity:1"
             d="m 122.07258,339.36514 c -3.81549,-4.8506 -1.59274,-11.44353 4.36196,-12.93807 4.40365,-1.10524 9.47647,2.98554 9.53366,7.68807 C 136.0214,338.49008 132.47438,342 128,342 c -2.97338,0 -4.32876,-0.6025 -5.92742,-2.63486 z m 195.12809,-2.39282 c -3.01427,-2.80821 -3.64853,-6.20557 -1.81903,-9.74343 2.56296,-4.95623 8.16479,-5.77337 12.16381,-1.77434 6.98853,6.98852 -3.12266,18.24621 -10.34478,11.51777 z M 218.5,318.84527 C 210.7593,314.61143 213.434,304 222.24187,304 c 8.16,0 10.55364,11.49399 3.10081,14.88973 -2.99942,1.36662 -4.27799,1.35831 -6.84268,-0.0445 z m 114,-45 c -4.90445,-2.68253 -5.91672,-7.77448 -2.42742,-12.21041 2.78368,-3.53887 8.03183,-3.62136 11.47287,-0.18031 3.99557,3.99556 2.98555,9.60445 -2.22971,12.38211 -2.6775,1.42604 -4.22068,1.42799 -6.81574,0.009 z M 107.15939,248.39909 c -3.20194,-2.24273 -4.30629,-5.67925 -3.01523,-9.38278 1.22518,-3.51457 3.50087,-5.01631 7.60154,-5.01631 7.09817,0 10.08764,8.852 4.64361,13.75 -2.94489,2.64952 -6.06104,2.86866 -9.22992,0.64909 z m 185.50145,-63.39031 c -5.63104,-6.69211 -5.83809,-6.30939 14.34372,-26.51335 17.1272,-17.14599 18.43803,-18.23704 20.88481,-17.38317 1.43585,0.50108 3.96063,2.00674 5.61063,3.3459 l 3,2.43484 -20.58887,20.63936 -20.58886,20.63935 z M 242.92308,144.07692 C 241.31538,142.46923 240,140.42188 240,139.52726 c 0,-2.47165 2.72185,-7.20655 4.5448,-7.90608 8.55498,-3.28285 15.39131,6.53362 9.00065,12.92427 -3.30245,3.30246 -7.01515,3.1387 -10.62237,-0.46853 z"
             id="path7426"
             transform="matrix(0.01277187,0,0,0.01277187,66.900451,40.068245)" /></g></g></g></g></svg>
