<?xml version="1.0" encoding="UTF-8" standalone="no"?>
<!-- Created with Inkscape (http://www.inkscape.org/) -->

<svg
   width="6.3059669mm"
   height="7.9313374mm"
   viewBox="0 0 6.3059669 7.9313374"
   version="1.1"
   id="svg5"
   xml:space="preserve"
   xmlns="http://www.w3.org/2000/svg"
   xmlns:svg="http://www.w3.org/2000/svg"><defs
     id="defs2" /><g
     id="layer1"
     transform="translate(101.11158,-22.550217)"><g
       id="g824"
       transform="translate(-167.61346,-7.2271143)"><path
         style="fill:#b2b39f;fill-opacity:1;stroke:#7f7f7d;stroke-width:0.183206;stroke-dasharray:none;stroke-opacity:1"
         d="m 88.736232,103.89098 c 0,-0.18612 0.0027,-0.19305 0.07425,-0.19305 h 0.07425 v -0.98009 -0.98009 h 0.252446 0.252445 v -0.28277 -0.28278 l 0.400978,0.008 0.400981,0.008 -5.95e-4,-0.1782 c -0.0015,-0.44242 -0.156192,-1.21887 -0.272141,-1.366278 -0.032,-0.04067 -0.154131,-0.129532 -0.271414,-0.197458 -0.361538,-0.209397 -0.809332,-0.720072 -1.054549,-1.202629 -0.04835,-0.09515 -0.107647,-0.14833 -0.261043,-0.234116 -0.109164,-0.06104 -0.304304,-0.212099 -0.433644,-0.33567 -0.556333,-0.531518 -0.924633,-1.331972 -1.07844,-2.343863 l -0.01918,-0.126222 h 0.626297 0.6263 v -0.311847 -0.311843 h 2.494751 2.494752 v 0.311843 0.311845 h 0.624039 0.624038 l -0.01749,0.126222 c -0.09825,0.708982 -0.356088,1.413702 -0.698387,1.908857 -0.192754,0.278826 -0.558026,0.625967 -0.816897,0.776346 -0.161674,0.09392 -0.211894,0.142708 -0.285427,0.277315 -0.277433,0.507869 -0.660542,0.939302 -1.027167,1.156721 -0.118951,0.07054 -0.241086,0.1598 -0.271413,0.198352 -0.113114,0.143806 -0.267578,0.925765 -0.269122,1.362425 l -5.95e-4,0.1782 0.400992,-0.009 0.40099,-0.009 v 0.28375 0.28375 h 0.252446 0.252446 v 0.98009 0.98009 h 0.07425 c 0.07158,0 0.07425,0.007 0.07425,0.19304 v 0.19305 h -1.811664 -1.811663 v -0.19305 z m -0.523166,-6.792093 c -0.03797,-0.184262 -0.123624,-0.947778 -0.137624,-1.22677 l -0.0074,-0.1485 -0.319267,-0.0084 c -0.261692,-0.0069 -0.319271,-5.95e-4 -0.319271,0.03425 0,0.06751 0.205046,0.638731 0.288676,0.804198 0.148579,0.293985 0.453068,0.729203 0.510165,0.729203 0.01246,0 0.0056,-0.08278 -0.01523,-0.183953 z m 4.826651,-0.01705 c 0.082,-0.102376 0.196785,-0.271416 0.255075,-0.375648 0.108682,-0.19434 0.329366,-0.749427 0.361172,-0.90846 l 0.01779,-0.08898 h -0.316489 c -0.227741,0 -0.319461,0.01041 -0.327085,0.03713 -0.0058,0.02041 -0.02606,0.242718 -0.04499,0.494 -0.03257,0.432763 -0.09572,0.883764 -0.139833,0.998723 -0.03724,0.09704 0.0427,0.03256 0.194352,-0.156763 z"
         id="path1381"
         transform="matrix(0.81875231,0,0,0.81875231,-4.4790298,-47.585323)" /><text
         xml:space="preserve"
         style="font-style:normal;font-variant:normal;font-weight:normal;font-stretch:normal;font-size:60px;line-height:1.25;font-family:Bebas;-inkscape-font-specification:Bebas;letter-spacing:0px;word-spacing:0px;fill:#7f7f7d;fill-opacity:1"
         x="193.14677"
         y="233.3857"
         id="text1939"
         transform="matrix(0.05353011,0,0,0.05353011,58.73755,20.476562)"><tspan
           id="tspan1937"
           x="193.14677"
           y="233.3857">2</tspan></text></g></g></svg>
