<?xml version="1.0" encoding="UTF-8" standalone="no"?>
<!-- Created with Inkscape (http://www.inkscape.org/) -->

<svg
   width="72.022163mm"
   height="95.073143mm"
   viewBox="0 0 72.022163 95.073143"
   version="1.1"
   id="svg5"
   xml:space="preserve"
   xmlns:inkscape="http://www.inkscape.org/namespaces/inkscape"
   xmlns:sodipodi="http://sodipodi.sourceforge.net/DTD/sodipodi-0.dtd"
   xmlns="http://www.w3.org/2000/svg"
   xmlns:svg="http://www.w3.org/2000/svg"><sodipodi:namedview
     id="namedview7"
     pagecolor="#ffffff"
     bordercolor="#666666"
     borderopacity="1.0"
     inkscape:showpageshadow="2"
     inkscape:pageopacity="0.0"
     inkscape:pagecheckerboard="0"
     inkscape:deskcolor="#d1d1d1"
     inkscape:document-units="mm"
     showgrid="false" /><defs
     id="defs2" /><g
     inkscape:label="Layer 1"
     inkscape:groupmode="layer"
     id="layer1"
     transform="translate(94.172152,-113.95742)"><path
       style="fill:#3146f8"
       d="M 255.61313,435.92545 254.5,435.8509 204,414.84106 l -50.5,-21.00985 -4.79159,-3.65281 -4.79159,-3.65281 -3.43096,-5.01279 -3.43095,-5.0128 -1.64555,-4.5 -1.64556,-4.5 -0.1319,-7.5 -0.1319,-7.5 1.40201,-26.94691 1.40202,-26.94691 -0.61797,-29.55309 L 135.0681,239.5 133.50743,222 l -1.56067,-17.5 -2.48103,-16.99035 -2.48103,-16.99036 -3.5448,-17.38263 -3.54479,-17.38263 0.65049,-3.12701 0.65048,-3.12702 2.42854,-4.22342 2.42854,-4.22342 4.22342,-2.47299 4.22342,-2.47299 11,-1.62086 11,-1.62086 11.96098,-2.51429 11.96097,-2.51428 11.53903,-3.4781 11.53902,-3.47811 11.5,-4.542965 11.5,-4.542968 14.75,-7.56316 14.75,-7.563161 14.75,7.563161 14.75,7.56316 11.5,4.542968 11.5,4.542965 11.53902,3.47811 11.53903,3.4781 11.96097,2.51428 11.96098,2.51429 11,1.62086 11,1.62086 4.22342,2.47299 4.22342,2.47299 2.42854,4.22342 2.42854,4.22342 0.65048,3.12702 0.65049,3.12701 -3.54479,17.38263 -3.5448,17.38263 -2.48103,16.99036 -2.48103,16.99035 -1.56067,17.5 -1.56067,17.5 -0.61796,29.55309 -0.61797,29.55309 1.40202,26.94691 L 378.5,352.5 l -0.1319,7.5 -0.1319,7.5 -1.64556,4.5 -1.64555,4.5 -3.43095,5.0128 -3.43096,5.01279 -4.79159,3.65235 L 358.5,393.83029 307.61313,414.91514 256.72626,436 l -1.11313,-0.0745 z m 0.0753,-22.9852 2.1884,0.0598 45.61714,-18.87786 45.61713,-18.87786 2.54178,-2.37214 2.54179,-2.37214 2.0359,-3.97131 2.03591,-3.97131 -1.1161,-24.52869 -1.1161,-24.52869 -0.51237,-14 -0.51238,-14 0.98507,-25.5 0.98507,-25.5 1.5134,-16 1.51341,-16 2.05333,-14.5 2.05332,-14.5 3.53469,-17.79104 3.53469,-17.79105 -0.49573,-1.29183 -0.49572,-1.29184 -13.84552,-2.28504 -13.84551,-2.28504 -11.63861,-2.84009 -11.63861,-2.8401 -11.12962,-3.59796 -11.12961,-3.59797 -9.61377,-4.00114 -9.61377,-4.00114 -9.84983,-4.94288 L 258.03634,100 H 256 253.96366 l -9.84984,4.94288 -9.84983,4.94288 -9.61377,4.00114 -9.61377,4.00114 -11.12961,3.59797 -11.12962,3.59796 -11.63861,2.8401 -11.63861,2.84009 -13.84551,2.28504 -13.84552,2.28504 -0.49572,1.29184 -0.49573,1.29183 3.53469,17.79105 3.53469,17.79104 2.05332,14.5 2.05333,14.5 1.51341,16 1.5134,16 0.98507,25.5 0.98507,25.5 -0.51238,14 -0.51237,14 -1.1161,24.52869 -1.1161,24.52869 2.03591,3.97131 2.0359,3.97131 2.54254,2.37284 2.54253,2.37285 45.30478,18.8174 45.30479,18.8174 2.1884,0.0598 z M 202.42816,342 h -0.31013 l -0.52117,-0.84328 -0.52118,-0.84328 5.16647,-29.85702 5.16647,-29.85703 -21.92186,-21.28214 -21.92186,-21.28215 0.96755,-0.9466 0.96755,-0.9466 29,-4.1419 29,-4.1419 1,-0.93417 1,-0.93417 13,-26.18519 13,-26.18518 1.05982,-0.32964 1.05982,-0.32963 13.34074,27.1091 13.34074,27.1091 1.09944,0.37291 1.09944,0.37291 28.5,4.12049 28.5,4.12049 1,1.00311 1,1.00312 -21.85379,21.16432 -21.85379,21.16433 5.1705,29.88329 5.17051,29.88328 -0.83524,0.83524 -0.83524,0.83524 -22.98147,-12.09047 -22.98148,-12.09046 -4.09552,-2.00227 -4.09552,-2.00228 -26.78533,14.12422 L 202.73829,342 Z"
       id="path686"
       transform="matrix(0.26458333,0,0,0.26458333,-125.8944,93.672229)"
       inkscape:export-filename="hapoel-rainbows.svg"
       inkscape:export-xdpi="96"
       inkscape:export-ydpi="96" /><path
       style="fill:#fffffb;fill-opacity:1;stroke-width:0.377953"
       d="M 76.853516,6.5253906 C 53.983457,17.57215 29.276629,24.125528 4.2753906,28.089844 -0.97052568,28.754764 2.8196905,35.736019 2.7070312,38.882812 13.619736,91.586357 14.772923,145.90195 11.117188,199.4668 c -0.08184,6.85996 4.34225,13.25791 11.231858,14.71547 22.16224,9.378 44.166694,19.6085 67.000563,27.1107 24.579441,-8.81045 48.854881,-18.69063 72.603511,-29.54492 8.83519,-6.4404 5.27371,-18.85922 5.07183,-27.987 -2.89739,-50.30621 -0.002,-101.053765 10.19185,-150.419253 1.28531,-3.349912 -0.81174,-5.944566 -4.35742,-5.707031 C 145.41473,23.648316 118.71255,15.389252 94.059424,2.6466359 88.27675,-2.2557806 82.637294,4.9896648 76.853516,6.5253906 Z M 90.111328,57.666016 c 8.435251,13.025399 13.450062,28.314897 22.507812,40.978515 6.62816,2.958009 14.63784,2.177249 21.69669,3.886679 7.3805,1.44736 16.41242,1.53066 22.80136,4.45317 -9.75448,12.13719 -21.87511,22.24832 -32.41602,33.58203 2.2355,15.10505 6.26576,30.38404 6.98047,45.48047 -14.26767,-5.12018 -27.13079,-13.69854 -40.942843,-19.96516 -5.282255,-0.31871 -10.364325,5.13637 -15.56259,6.9467 -9.116075,4.39992 -18.027094,10.34943 -27.486754,13.47353 1.219578,-15.49696 5.559174,-30.86546 7.517578,-46.27539 -10.723166,-11.30672 -23.235726,-21.18658 -32.654297,-33.60742 14.245666,-3.86838 29.810507,-4.117 44.296875,-7.568359 6.763316,-7.329159 9.550476,-17.589011 14.631679,-26.082389 2.78308,-4.98851 5.33003,-11.102938 8.63004,-15.302376 z"
       id="path757"
       transform="matrix(0.34414833,0,0,0.34414833,-88.962341,119.76361)" /></g></svg>
