<?xml version="1.0" encoding="UTF-8" standalone="no"?>
<!-- Created with Inkscape (http://www.inkscape.org/) -->

<svg
   width="6.912076mm"
   height="6.9120765mm"
   viewBox="0 0 6.912076 6.9120765"
   version="1.1"
   id="svg5"
   xml:space="preserve"
   sodipodi:docname="og.svg"
   inkscape:version="1.2.1 (9c6d41e410, 2022-07-14)"
   xmlns:inkscape="http://www.inkscape.org/namespaces/inkscape"
   xmlns:sodipodi="http://sodipodi.sourceforge.net/DTD/sodipodi-0.dtd"
   xmlns:xlink="http://www.w3.org/1999/xlink"
   xmlns="http://www.w3.org/2000/svg"
   xmlns:svg="http://www.w3.org/2000/svg"><sodipodi:namedview
     id="namedview200"
     pagecolor="#ffffff"
     bordercolor="#666666"
     borderopacity="1.0"
     inkscape:showpageshadow="2"
     inkscape:pageopacity="0.0"
     inkscape:pagecheckerboard="0"
     inkscape:deskcolor="#d1d1d1"
     inkscape:document-units="mm"
     showgrid="false"
     inkscape:zoom="16.076934"
     inkscape:cx="13.497598"
     inkscape:cy="15.799032"
     inkscape:window-width="1920"
     inkscape:window-height="1017"
     inkscape:window-x="-8"
     inkscape:window-y="-8"
     inkscape:window-maximized="1"
     inkscape:current-layer="svg5" /><defs
     id="defs2"><linearGradient
       inkscape:collect="always"
       id="linearGradient945"><stop
         style="stop-color:#a0a0a0;stop-opacity:1;"
         offset="0"
         id="stop941" /><stop
         style="stop-color:#ffffff;stop-opacity:1;"
         offset="1"
         id="stop943" /></linearGradient><linearGradient
       inkscape:collect="always"
       xlink:href="#linearGradient945"
       id="linearGradient947"
       x1="19.699574"
       y1="23.642599"
       x2="14.909624"
       y2="11.533139"
       gradientUnits="userSpaceOnUse" /></defs><ellipse
     style="fill:url(#linearGradient947);paint-order:fill markers stroke;fill-opacity:1"
     id="path308"
     cx="15.70573"
     cy="13.839704"
     transform="matrix(0.31393985,0,0,0.31393985,-1.4746143,-0.88879597)"
     rx="10.107649"
     ry="10.169849" /><g
     id="layer1"
     transform="translate(189.93474,-45.31578)"><g
       id="g5857"
       transform="matrix(0.19507172,0,0,0.19507172,-249.99334,71.3614)"><g
         id="g5851"
         transform="matrix(0.22771667,0,0,0.22771667,43.692667,-15.169106)"
         style="fill:#2b2b2b;fill-opacity:1"><path
           style="color:#000000;fill:#2b2b2b;fill-opacity:1;paint-order:stroke fill markers"
           d="m 1237.959,-519.7207 c -42.8905,0 -77.8027,34.91225 -77.8027,77.80273 0,42.89049 34.9122,77.80078 77.8027,77.80078 42.8905,0 77.8008,-34.91029 77.8008,-77.80078 0,-42.89048 -34.9103,-77.80273 -77.8008,-77.80273 z m 0,13.17383 c 35.7706,0 64.6269,28.85831 64.6269,64.6289 0,35.77059 -28.8563,64.62695 -64.6269,64.62695 -35.7706,0 -64.627,-28.85636 -64.627,-64.62695 0,-35.77059 28.8564,-64.6289 64.627,-64.6289 z"
           id="path5849" /></g><text
         xml:space="preserve"
         style="font-style:normal;font-variant:normal;font-weight:normal;font-stretch:normal;font-size:90px;line-height:1.25;font-family:Stencil;-inkscape-font-specification:Stencil;letter-spacing:0px;word-spacing:0px;fill:#2b2b2b;fill-opacity:1"
         x="1250.8552"
         y="-384.45404"
         id="text5855"
         transform="matrix(0.22856671,0,0,0.22856671,26.926011,-21.072694)"><tspan
           id="tspan5853"
           x="1250.8552"
           y="-384.45404"
           style="fill:#2b2b2b;fill-opacity:1">OG</tspan></text></g></g></svg>
