<?xml version="1.0" encoding="UTF-8" standalone="no"?>
<!-- Created with Inkscape (http://www.inkscape.org/) -->

<svg
   width="260.88983mm"
   height="260.7059mm"
   viewBox="0 0 260.88983 260.7059"
   version="1.1"
   id="svg1"
   xml:space="preserve"
   xmlns="http://www.w3.org/2000/svg"
   xmlns:svg="http://www.w3.org/2000/svg"><defs
     id="defs1" /><g
     id="layer1"
     transform="translate(899.24718,19.119635)"><g
       id="g38"><path
         style="fill:#fefefe;fill-opacity:1"
         d="m -442.82489,-243.34768 c -24.13617,-0.51623 -48.26447,5.63012 -69.18751,18.15444 -15.00778,8.9835 -27.82524,20.52638 -38.27931,34.47283 -14.82532,19.77799 -23.73159,43.46612 -25.61084,68.11678 -0.34897,4.57422 -0.34717,14.44305 0.004,19.19572 0.74861,10.142468 3.32644,22.725627 6.61304,32.281755 6.6238,19.259345 16.72242,35.402355 31.20274,49.878092 11.16754,11.16401 21.51105,18.6153666 35.30121,25.4299728 14.72585,7.2769902 29.94934,11.4814942 46.72841,12.9061892 h 5.2e-4 c 3.71105,0.315101 17.11072,0.321686 20.76979,0.01034 21.98937,-1.871086 42.44141,-8.8988543 60.58028,-20.817334 34.27373,-22.520184 55.80477,-58.570205 59.14419,-99.027555 0.37755,-4.57563 0.38067,-16.0568 0.006,-20.50521 -2.08177,-24.69598 -10.78478,-47.63804 -25.64495,-67.60103 -14.78321,-19.85963 -35.77067,-35.65728 -58.8641,-44.30841 -13.79645,-5.16835 -28.28106,-7.87684 -42.76277,-8.18657 z"
         transform="translate(-323.08407,224.25806)"
         id="path37" /><path
         id="path32"
         style="fill:#000000"
         d="m -424.96241,-88.197464 c -1.77424,-0.027 -3.52645,0.05187 -4.54184,0.247013 -6.34799,1.219971 -10.72753,5.201086 -12.53929,11.399304 -0.81665,2.793872 -1.03158,9.579653 -0.40204,12.686564 0.7643,3.771954 2.33896,6.627926 4.67103,8.471318 l 1.30845,1.034562 -1.16582,0.802018 c -2.48064,1.706725 -4.66413,5.1002 -5.57176,8.659937 -1.01126,3.966188 -1.13131,9.864297 -0.2899,14.245642 0.73648,3.834912 2.86373,7.983254 5.09995,9.946679 2.78978,2.449461 6.35415,3.97997 10.38592,4.458643 6.41198,0.761264 12.49974,-1.049592 16.30082,-4.8488 3.36927,-3.36761 4.99546,-7.710427 5.3113,-14.183113 0.41384,-8.481185 -1.94797,-15.194492 -6.43113,-18.278988 l -1.16634,-0.802018 1.30483,-1.031462 c 2.97032,-2.347901 4.47133,-5.586129 5.07463,-10.947652 0.36847,-3.274591 0.005,-7.88236 -0.84181,-10.661365 -1.71983,-5.645847 -6.07395,-9.62394 -11.83339,-10.811226 -1.10299,-0.227377 -2.89938,-0.360056 -4.67361,-0.387056 z m -0.80461,10.107393 c 0.30382,-0.02241 0.62181,-0.02144 0.95395,0.0026 1.88992,0.136704 3.23732,1.078388 4.04678,2.828768 0.51287,1.109039 0.56379,1.674249 0.56379,6.246647 0,3.451771 -0.1115,5.396951 -0.35605,6.20789 -0.44739,1.483583 -1.9683,3.034269 -3.3538,3.418912 -1.32335,0.367394 -1.60154,0.357819 -2.90473,-0.09974 -1.24332,-0.436537 -2.54008,-1.819398 -3.03082,-3.231844 -0.56727,-1.63273 -0.69038,-9.747296 -0.17467,-11.521261 0.69836,-2.402273 2.12884,-3.695083 4.25555,-3.851961 z m 0.54054,29.186332 c 1.65588,0 2.03279,0.09585 2.99362,0.761711 2.34093,1.622263 3.07313,4.624256 2.89801,11.881445 -0.0998,4.137405 -0.19763,5.026938 -0.68988,6.287988 -0.61775,1.582591 -1.8449,2.959384 -3.03909,3.409611 -1.16008,0.437367 -3.63254,0.34093 -4.67207,-0.182417 -2.55295,-1.285269 -3.54169,-4.316917 -3.51399,-10.773503 0.0273,-6.368715 0.84709,-9.135581 3.18016,-10.734229 0.79118,-0.542127 1.26507,-0.650606 2.84324,-0.650606 z"
         transform="translate(-323.08407,224.25806)" /><path
         id="path29"
         style="fill:#000000"
         d="m -465.66536,-88.154056 c -2.19187,-0.09538 -4.45024,0.0024 -5.9986,0.327112 -4.1651,0.873355 -7.79943,3.320222 -10.00817,6.737573 -2.04055,3.157116 -3.18661,8.733046 -2.83549,13.79709 0.37295,5.378776 1.55548,8.377152 4.41007,11.18123 1.61218,1.583662 1.82344,1.891936 1.44126,2.105815 -0.5887,0.329455 -2.2304,1.754717 -2.98122,2.587955 -1.0875,1.206886 -2.71417,4.670204 -3.30987,7.047632 -0.50249,2.005519 -0.58876,3.072705 -0.59376,7.37216 -0.005,4.328044 0.0752,5.347777 0.57877,7.334436 1.99167,7.857348 7.51628,12.647069 15.47503,13.416236 1.20394,0.116355 2.20625,0.2277 2.22725,0.24753 0.19786,0.187178 5.80008,-0.636507 7.17734,-1.055233 6.27344,-1.907303 10.22201,-6.64166 11.58482,-13.890625 0.61473,-3.269816 0.41072,-10.654077 -0.38137,-13.79089 -0.96582,-3.82475 -3.0765,-7.20923 -5.42344,-8.697143 -0.66114,-0.419148 -1.20681,-0.841691 -1.21181,-0.938961 -0.005,-0.09727 0.40693,-0.43455 0.91622,-0.749308 2.1424,-1.324075 4.28352,-5.128215 5.04517,-8.963277 0.55461,-2.792608 0.41081,-9.619769 -0.25425,-12.071098 -1.5081,-5.558629 -4.95905,-9.315313 -10.25829,-11.166244 -1.28215,-0.447832 -3.40779,-0.736614 -5.59966,-0.83199 z m -1.18907,10.028845 c 0.7892,0.01417 1.59815,0.20393 2.34456,0.580326 0.9565,0.482336 1.33045,0.896125 1.97197,2.180746 0.74729,1.496426 0.79755,1.796775 0.88935,5.346443 0.15294,5.914311 -0.62108,8.836517 -2.67063,10.082589 -1.73621,1.055566 -4.14218,0.883516 -5.6007,-0.400492 -1.69724,-1.494153 -2.44259,-4.935144 -2.20245,-10.166305 0.15001,-3.267781 0.65392,-4.96955 1.86036,-6.280237 0.83076,-0.902535 2.09221,-1.366685 3.40754,-1.34307 z m 0.15658,29.078845 c 1.16334,0.008 2.31277,0.397961 3.22048,1.218014 1.87977,1.698261 2.66716,4.86807 2.65616,10.691337 -0.0102,5.424698 -0.86794,8.494309 -2.78226,9.954431 -0.84283,0.642863 -1.2939,0.776388 -2.87631,0.851628 -1.57921,0.07509 -2.06561,-0.01152 -3.06751,-0.54467 -2.52012,-1.341051 -3.6807,-5.549609 -3.3383,-12.106238 0.20772,-3.977531 0.4978,-5.566367 1.3038,-7.141166 0.9665,-1.888398 2.94504,-2.936662 4.88394,-2.923336 z"
         transform="translate(-323.08407,224.25806)" /><path
         id="path2"
         style="fill:#010101;fill-opacity:1"
         d="m -442.82489,-243.34768 c -24.13617,-0.51623 -48.26447,5.63012 -69.18751,18.15444 -15.00778,8.9835 -27.82524,20.52638 -38.27931,34.47283 -14.82532,19.77799 -23.73159,43.46612 -25.61084,68.11678 -0.34897,4.57422 -0.34717,14.44305 0.004,19.19572 0.74861,10.142468 3.32644,22.725627 6.61304,32.281755 6.6238,19.259345 16.72242,35.402355 31.20274,49.878092 11.16754,11.16401 21.51105,18.6153666 35.30121,25.4299728 14.72585,7.2769902 29.94934,11.4814942 46.72841,12.9061892 h 5.2e-4 c 3.71105,0.315101 17.11072,0.321686 20.76979,0.01034 21.98937,-1.871086 42.44141,-8.8988543 60.58028,-20.817334 34.27373,-22.520184 55.80477,-58.570205 59.14419,-99.027555 0.37755,-4.57563 0.38067,-16.0568 0.006,-20.50521 -2.08177,-24.69598 -10.78478,-47.63804 -25.64495,-67.60103 -14.78321,-19.85963 -35.77067,-35.65728 -58.8641,-44.30841 -13.79645,-5.16835 -28.28106,-7.87684 -42.76277,-8.18657 z m -2.9099,14.82028 c 8.64132,0.003 12.32369,0.29849 19.63188,1.57458 15.43918,2.69587 30.686,8.77834 43.60354,17.39532 26.82214,17.89241 44.87624,45.22149 50.63567,76.64855 1.38331,7.54822 1.60797,10.35078 1.60197,19.97604 -0.005,6.98564 -0.10804,9.76444 -0.46251,12.43542 -3.70497,27.917231 -14.70494,50.529225 -33.78657,69.453126 -18.54616,18.392863 -42.04431,29.7346631 -68.2594,32.9468263 -4.20294,0.51499 -17.37686,0.7413217 -21.82812,0.3751709 -14.73485,-1.2120582 -29.03004,-5.1891644 -42.20104,-11.7408854 -11.68699,-5.8135258 -21.19933,-12.6807358 -30.66635,-22.1392168 -16.04543,-16.030961 -26.82381,-36.074426 -31.49988,-58.57627 -5.06181,-24.358031 -1.94037,-49.500661 8.96792,-72.231251 16.2586,-33.8795 48.10738,-58.15015 84.68372,-64.53353 7.49825,-1.30861 10.93607,-1.58688 19.57917,-1.58388 z"
         transform="translate(-323.08407,224.25806)" /><path
         style="fill:#000000"
         d="m -457.64095,-93.131888 c -2.48537,-0.317593 -7.58005,-1.487272 -9.68417,-2.223369 -1.29491,-0.453008 -3.6295,-1.457766 -5.18799,-2.232797 l -2.83361,-1.409148 -1.34284,2.490959 -1.34283,2.490958 h -4.09178 -4.09178 v -18.388545 -18.38854 h 6.08541 6.08542 l 10e-4,2.97656 c 0.004,11.8588 4.85224,18.71927 13.22811,18.71927 7.47109,0 13.01844,-5.93578 11.6605,-12.47697 -0.30947,-1.49071 -1.31353,-3.10014 -7.81455,-12.52615 -10.36297,-15.02554 -23.17261,-33.97204 -23.97042,-35.45417 -1.33703,-2.48389 -2.01385,-4.8261 -2.38161,-8.24187 -0.92903,-8.62878 2.36808,-17.88948 8.72772,-24.51383 5.43367,-5.65983 13.47666,-9.57838 22.06573,-10.75042 2.66157,-0.36319 8.82119,-0.36312 11.43285,1.3e-4 4.51915,0.62855 9.67331,2.4347 13.5713,4.75571 1.21165,0.72146 2.2951,1.31174 2.40768,1.31174 0.11259,0 0.87819,-1.01203 1.70135,-2.24896 l 1.49665,-2.24895 h 2.7764 2.77639 v 17.59479 17.59479 h -4.21007 -4.21008 l -0.14205,-0.99219 c -0.0781,-0.5457 -0.21455,-1.70656 -0.30315,-2.57969 -0.24034,-2.36847 -1.3136,-6.62348 -2.22491,-8.82079 -1.94637,-4.69299 -5.4034,-7.47476 -9.88423,-7.95353 -7.73596,-0.82659 -13.50131,3.92709 -13.10321,10.80395 0.19972,3.45016 0.0159,3.15076 16.49581,26.87246 15.77642,22.70912 16.43436,23.77343 17.58289,28.44271 1.15238,4.68491 0.92665,10.8034 -0.56905,15.42433 -2.87272,8.8752 -10.74699,16.492321 -20.66782,19.992896 -4.36749,1.541071 -7.1104,1.955865 -13.42454,2.030111 -3.1287,0.03679 -6.10526,0.01364 -6.61458,-0.05145 z"
         transform="translate(-319.90905,224.25806)"
         id="path35" /><path
         id="path28"
         style="fill:#cd2421;fill-opacity:1"
         d="m -487.22476,-211.39098 c -12.42481,5.24243 -23.59368,12.87304 -33.79897,23.05027 -17.52884,17.48063 -28.12486,39.29439 -30.97434,63.76614 -0.57846,4.96797 -0.65939,16.97189 -0.14728,21.82812 2.56716,24.343852 12.74968,46.172316 29.87518,64.044156 10.88809,11.362605 24.19599,20.0209 39.89059,25.953971 0.84515,0.319494 1.65303,0.620285 2.36471,0.8816 -8.99099,-5.327815 -15.01975,-15.320881 -15.01975,-26.819035 V -190.54161 c 0,-8.04836 2.95377,-15.35953 7.80986,-20.84937 z"
         transform="translate(-323.08407,224.25806)" /><path
         id="path27"
         style="fill:#cd2421;fill-opacity:1"
         d="m -407.65339,-212.79658 c 5.63834,5.615 9.13484,13.49875 9.13484,22.25497 l 0.29921,17.92449 0.1881,133.419249 -0.30334,3.624068 c -0.3443,4.109366 -1.10676,7.097149 -2.67942,10.501168 -2.54286,5.504 -7.40752,10.636688 -12.64006,13.336653 -0.90239,0.465635 -1.64214,0.896666 -1.65365,0.962732 v 5.17e-4 5.17e-4 h 5.2e-4 c 0,0.278566 6.76823,-2.054982 10.84792,-3.74034 2.78531,-1.150636 10.78093,-5.217146 13.43174,-6.831108 13.32727,-8.114369 24.06647,-18.164026 32.98506,-30.867367 10.72442,-15.275498 16.98703,-32.445158 18.81798,-51.593749 0.53141,-5.55765 0.39954,-15.55478 -0.27906,-21.16667 -2.28929,-18.93217 -9.06755,-35.97391 -20.42356,-51.34983 -11.51927,-15.59698 -29.13207,-29.25917 -46.3181,-35.92856 z"
         transform="translate(-323.08407,224.25806)" /></g></g></svg>
