<?xml version="1.0" encoding="UTF-8" standalone="no"?>
<!-- Created with Inkscape (http://www.inkscape.org/) -->

<svg
   width="7.8540397mm"
   height="6.3806973mm"
   viewBox="0 0 7.8540397 6.3806973"
   version="1.1"
   id="svg5"
   xml:space="preserve"
   xmlns="http://www.w3.org/2000/svg"
   xmlns:svg="http://www.w3.org/2000/svg"><defs
     id="defs2" /><g
     id="layer1"
     transform="translate(120.38094,-41.575995)"><g
       id="g4174"
       transform="translate(-199.00556,-6.4970655)"><g
         id="g3976"
         transform="translate(2.4943335,-0.24334961)"><path
           style="fill:#cd6d0a;fill-opacity:1;stroke:#995107;stroke-width:0.2;stroke-dasharray:none;stroke-opacity:1"
           d="m 63.195786,67.970305 c -0.256834,-0.117339 -2.89819,-1.540144 -2.958697,-1.593746 -0.06023,-0.05336 -0.06575,-0.167472 -0.06575,-1.360211 0,-0.983861 0.01147,-1.316947 0.04697,-1.363239 0.0427,-0.05572 5.418042,-2.922853 5.878715,-3.135647 l 0.196141,-0.0906 0.170895,0.07559 c 0.223671,0.09894 2.77648,1.452014 2.959082,1.568412 l 0.14089,0.08981 v 1.312982 c 0,1.250175 -0.0035,1.316218 -0.07274,1.380747 -0.07979,0.07434 -0.103707,0.0872 -3.514057,1.889497 -2.471742,1.306265 -2.540391,1.336529 -2.781439,1.226402 z"
           id="path3276"
           transform="matrix(0.81875231,0,0,0.81875231,26.946737,-1.068373)" /><path
           id="path3278"
           style="color:#000000;fill:#995107;fill-opacity:1;stroke-linecap:round;stroke-linejoin:round"
           d="m 316.42189,135.14057 -18.83203,10.02929 -9.9082,-5.26758 a 0.28346449,0.28346449 0 0 0 -0.21485,-0.0215 0.28346449,0.28346449 0 0 0 -0.16797,0.13867 0.28346449,0.28346449 0 0 0 0.11719,0.38281 l 9.83985,5.23243 0.0273,7.79101 a 0.28346449,0.28346449 0 0 0 0.28516,0.28321 0.28346449,0.28346449 0 0 0 0.28125,-0.28516 l -0.0274,-7.73633 18.86719,-10.04687 z"
           transform="matrix(0.26458333,0,0,0.26458333,0.14701208,14.003923)" /></g></g></g></svg>
