<?xml version="1.0" encoding="UTF-8" standalone="no"?>
<!-- Created with Inkscape (http://www.inkscape.org/) -->

<svg
   width="5.1269464mm"
   height="5.1927166mm"
   viewBox="0 0 5.1269464 5.1927166"
   version="1.1"
   id="svg1588"
   inkscape:version="1.2.1 (9c6d41e410, 2022-07-14)"
   sodipodi:docname="moncada.svg"
   inkscape:export-filename="supercoppamoncada.svg"
   inkscape:export-xdpi="96"
   inkscape:export-ydpi="96"
   xmlns:inkscape="http://www.inkscape.org/namespaces/inkscape"
   xmlns:sodipodi="http://sodipodi.sourceforge.net/DTD/sodipodi-0.dtd"
   xmlns="http://www.w3.org/2000/svg"
   xmlns:svg="http://www.w3.org/2000/svg">
  <sodipodi:namedview
     id="namedview1590"
     pagecolor="#ffffff"
     bordercolor="#666666"
     borderopacity="1.0"
     inkscape:showpageshadow="2"
     inkscape:pageopacity="0.0"
     inkscape:pagecheckerboard="0"
     inkscape:deskcolor="#d1d1d1"
     inkscape:document-units="mm"
     showgrid="false"
     inkscape:zoom="17.396097"
     inkscape:cx="11.094443"
     inkscape:cy="10.577085"
     inkscape:window-width="1920"
     inkscape:window-height="1017"
     inkscape:window-x="-8"
     inkscape:window-y="-8"
     inkscape:window-maximized="1"
     inkscape:current-layer="layer1" />
  <defs
     id="defs1585" />
  <g
     inkscape:label="Layer 1"
     inkscape:groupmode="layer"
     id="layer1"
     transform="translate(-64.038274,-105.60296)">
    <path
       style="fill:#f9c152;fill-opacity:1;stroke-width:2.83465"
       d="m 294.71289,-8.2773438 c -8.30064,2.3094484 -17.64286,-0.010346 -25.00762,4.666679 -6.20672,6.3594226 -0.78622,15.8473968 -1.48652,23.4485558 1.22324,9.109253 -0.56227,18.563896 -6.7793,25.613281 -13.48626,19.326944 -18.02622,43.025938 -28.22736,64.013458 -16.2622,39.70634 -45.64772,74.24847 -84.48995,93.03575 -25.4705,13.8327 -54.181433,17.81357 -82.264363,22.55601 -22.021689,4.47969 -44.898281,8.60869 -64.7460009,19.47909 -6.4767555,4.22523 -3.0946877,12.31493 -0.86607298,18.07194 -6.67504492,3.98128 -12.67245212,13.01213 -6.78515622,20.1875 23.6573941,28.89605 60.4043271,45.12185 97.0683591,48.84375 36.808384,2.532 74.338414,-3.51221 107.764624,-19.40506 62.65919,-27.90761 111.049,-83.92695 133.03976,-148.51376 9.59147,-29.49339 14.53208,-62.51595 4.07062,-92.452272 -5.0721,-14.913323 -17.77342,-24.979818 -26.20899,-37.714844 -5.18836,-10.673449 -3.89334,-22.834232 -4.36383,-34.19936248 -0.47254,-5.09955932 -5.93587,-8.23792382 -10.7182,-7.63071532 z"
       id="path2679"
       transform="matrix(0.01408241,0,0,0.01408241,64.287926,106.06399)" />
    <path
       style="fill:#f2a65e;fill-opacity:1;stroke:none;stroke-width:0.377953;stroke-linecap:butt;stroke-linejoin:miter;stroke-dasharray:none;stroke-opacity:1"
       d="m 43.180037,-15.164806 c 2.947307,7.8228464 -7.933406,15.77811316 -16.540801,12.6431765 l 1.760038,1.3943815 c 7.45507,1.96075938 17.726114,-2.7462096 16.009092,-12.737822 l -1.228329,-1.299736"
       id="path2873"
       transform="matrix(0.26458333,0,0,0.26458333,57.274889,110.80976)"
       sodipodi:nodetypes="ccccc" />
    <path
       style="fill:#f2a65e;fill-opacity:1;stroke:none;stroke-width:1px;stroke-linecap:butt;stroke-linejoin:miter;stroke-opacity:1"
       d="m 41.841375,-18.083139 c 0.136168,0.712579 0.160046,1.599808 0.126409,2.368506 0.49686,-0.08284 1.08732,0.377209 1.66993,0.791719 L 42.6464,-18.029913 Z"
       id="path3914"
       transform="matrix(0.26458333,0,0,0.26458333,57.253765,110.79568)"
       sodipodi:nodetypes="ccccc" />
    <path
       style="fill:#f9c152;fill-opacity:1;stroke:none;stroke-width:0.377953;stroke-dasharray:none"
       d="M 57.181641,-17.195312 C 38.371514,-15.375564 19.34281,-13.33553 1.0976562,-8.265625 -12.427402,-4.6716578 -21.649804,11.226221 -15.146484,24.318359 -8.8881046,38.203123 7.5368654,44.34297 21.984724,42.396483 36.722043,41.221976 52.308876,40.627497 65.736328,33.888672 79.77332,25.954783 82.099958,5.8871656 75.197266,-7.4863281 71.522695,-13.707959 64.340691,-17.395502 57.181641,-17.195312 Z"
       id="path4011"
       transform="matrix(0.0070412,0,0,0.0070412,68.069052,105.78234)" />
    <path
       style="fill:#f09b49;fill-opacity:1"
       d="m 367.5,903.37874 c -16.29429,-1.06217 -40.46933,-3.76394 -53.23971,-5.95 C 239.42625,884.61847 170.50642,849.64614 123,800.37656 100.37756,776.91452 90.661876,759.10592 89.346405,738.69039 88.16959,720.42674 93.877966,703.6437 104.40383,694.42047 113.90951,686.09118 136.3177,675.90208 167.5,665.7304 c 43.00546,-14.0284 79.72047,-21.73772 144,-30.23674 14.24748,-1.8838 55.8669,-8.75538 66.5,-10.97949 36.23754,-7.57976 72.65151,-20.24995 103,-35.8387 56.75116,-29.1507 99.03609,-65.45819 137.24143,-117.84083 31.56273,-43.27508 53.5554,-88.39092 82.30202,-168.83464 9.59419,-26.8481 14.79335,-37.16771 26.45024,-52.5 17.446,-22.9467 21.69605,-35.50452 20.64473,-61 -0.80945,-19.62975 -3.6646,-32.48346 -14.2161,-64 -7.54111,-22.5247 -5.04985,-35.49755 8.20013,-42.701022 9.34711,-5.08164 58.59007,-12.957484 82.37755,-13.175339 14.47869,-0.132602 16.01701,0.265083 23.74322,6.138095 4.90744,3.730346 9.00435,13.111342 10.36707,23.738266 1.08833,8.48715 0.93683,10.48157 -2.6587,35 -3.27783,22.35205 -3.81345,28.45535 -3.81749,43.5 -0.004,14.97765 0.31356,18.65308 2.20348,25.5 4.40159,15.94637 10.15058,25.44269 26.53493,43.83103 21.15913,23.74714 30.06519,38.50469 38.25258,63.38537 8.24253,25.04826 11.69228,47.89395 11.74549,77.7836 0.12163,68.32336 -21.53386,142.91707 -63.14299,217.5 C 806.76533,713.37652 717.76113,798.20328 608.5,851.58414 551.00644,879.67332 494.68754,895.84873 433,901.98968 c -11.13466,1.10845 -55.403,2.04725 -65.5,1.38906 z m 52,-29.41381 c 63.196,-5.34237 124.21081,-22.36129 179.88498,-50.17547 71.90593,-35.92339 127.4244,-79.8281 178.66361,-141.28946 44.28638,-53.12144 79.75861,-116.18975 100.93962,-179.46688 14.26757,-42.62358 19.71819,-71.36822 20.70328,-109.18177 1.04411,-40.07892 -3.7147,-66.78361 -16.63532,-93.35135 -6.75305,-13.88582 -15.53167,-25.76877 -29.09223,-39.37997 -11.97516,-12.01987 -19.16019,-22.07088 -23.53886,-32.92809 -9.16657,-22.72913 -12.47832,-53.11482 -8.51891,-78.16193 l 0.82227,-5.20165 -3.11422,0.54295 c -7.34553,1.28066 -31.8762,2.82856 -39.40657,2.48659 -6.94232,-0.31527 -8.11775,-0.14256 -7.72539,1.13513 2.60021,8.46745 3.91865,23.43679 3.92001,44.50697 10e-4,20.6841 -0.22184,23.80553 -2.2163,31 -4.14436,14.94966 -8.40999,22.20606 -24.68944,42 -8.64318,10.50912 -13.50063,20.72909 -28.9927,61 -18.90626,49.14594 -25.28853,64.11233 -39.15628,91.82126 -29.50321,58.94987 -70.93444,111.59703 -116.65611,148.23631 -46.40525,37.18707 -102.54188,65.22399 -160.78874,80.30446 -16.80667,4.35135 -44.64114,9.67627 -65.9027,12.60763 -10.175,1.40284 -26.825,3.69372 -37,5.09085 -35.37588,4.85745 -58.67482,9.28253 -86.5,16.42863 -18.8053,4.8296 -50.74809,15.39001 -61.72167,20.40541 l -7.72168,3.52914 2.46191,5.28815 c 1.35405,2.90849 2.4663,6.98978 2.47167,9.06954 0.006,2.16596 0.54378,3.92975 1.25977,4.12866 0.6875,0.191 8.45,1.10059 17.25,2.0213 8.8,0.92071 29.05,3.4233 45,5.56132 48.31299,6.47612 60.50537,7.42947 94.5,7.38919 43.73534,-0.0518 73.89514,-3.72416 117.29368,-14.28196 C 462.65129,716.0117 495.96798,703.84197 530,686.85335 606.29684,648.76635 666.95898,595.453 713.8234,525.29886 751.1486,469.42456 773.54681,408.89305 787.41102,326.42717 790.89823,305.68486 796,258.64827 796,247.23972 c 0,-3.83147 1.95326,0.78729 3.49324,8.26028 3.77166,18.30248 3.56754,60.33867 -0.43702,90 -9.1677,67.90415 -31.95621,129.50849 -68.80461,186 -43.40991,66.55084 -98.20968,118.18748 -168.23832,158.52737 -82.01136,47.24251 -183.64504,72.1415 -277.52138,67.98931 -26.15298,-1.15676 -44.40455,-2.8862 -89.49191,-8.4799 -45.72657,-5.67299 -50,-6.07477 -50,-4.70079 0,2.73352 -6.45515,8.22253 -12.083,10.27454 -3.25435,1.1866 -5.917,2.37751 -5.917,2.64647 0,2.16924 11.84999,16.20514 23.44061,27.76457 50.76421,50.62765 122.50198,82.00088 203.05939,88.8044 9.61412,0.81197 55.06538,0.56333 66,-0.36104 z M 808.31548,122.00589 c 12.54497,-2.12943 14.17974,-2.68565 16.97658,-5.77612 2.10028,-2.32079 3.16413,-10.50257 1.91525,-14.72977 -1.04803,-3.54738 -0.41406,-3.538344 -26.20731,-0.37351 -27.53141,3.37811 -38.23807,5.49411 -40.25,7.95477 -1.99758,2.44311 -2.14094,3.7603 -0.79463,7.30134 1.0716,2.81854 4.25434,5.17817 9.80371,7.26833 4.89145,1.84235 22.41628,1.09464 38.5564,-1.64504 z"
       id="path1918"
       transform="matrix(0.00614791,-1.3032398e-4,1.3032398e-4,0.00614791,63.39436,105.28927)" />
  </g>
</svg>
