<?xml version="1.0" encoding="UTF-8" standalone="no"?>
<!-- Created with Inkscape (http://www.inkscape.org/) -->

<svg
   width="245.74211mm"
   height="343.51947mm"
   viewBox="0 0 245.74211 343.51947"
   version="1.1"
   id="svg1"
   xml:space="preserve"
   xmlns="http://www.w3.org/2000/svg"
   xmlns:svg="http://www.w3.org/2000/svg"><defs
     id="defs1" /><g
     id="layer1"
     transform="translate(2162.3897,2033.8039)"><rect
       style="fill:#877d4f;fill-opacity:1;stroke:none;stroke-width:14.2571;stroke-linejoin:miter;stroke-dasharray:none;stroke-opacity:1;paint-order:normal"
       id="rect48"
       width="1158.73"
       height="528.40234"
       x="-4726.1162"
       y="-6963.1089"
       transform="matrix(0.21207877,0,0,0.65010979,-1160.0808,2492.9812)" /><rect
       style="fill:#eeecde;fill-opacity:1;stroke:none;stroke-width:14.2571;stroke-linejoin:miter;stroke-dasharray:none;stroke-opacity:1;paint-order:normal"
       id="rect46"
       width="1158.73"
       height="528.40234"
       x="-4726.1162"
       y="-6963.1089"
       transform="matrix(0.20030609,0,0,0.61402162,-1208.8992,2251.2299)" /><path
       style="fill:#877d4f;fill-opacity:1"
       d="m -1994.5315,-1455.9832 c -0.093,-0.1507 -0.1285,-24.2585 -0.079,-53.573 l 0.091,-53.299 h 25.7027 c 26.3388,0 28.7042,0.075 34.0811,1.0816 15.364,2.8761 23.8639,11.8978 24.4076,25.9059 0.2173,5.5985 -0.7521,9.9914 -3.1416,14.2367 -1.4422,2.5621 -5.2193,6.4279 -7.5539,7.7311 -0.9051,0.5053 -1.6421,0.9782 -1.6376,1.051 0,0.073 0.9278,0.5727 2.0517,1.1111 9.5345,4.5669 14.7666,15.6802 13.2415,28.1253 -0.7785,6.3531 -3.4701,11.9825 -7.8811,16.4831 -5.8358,5.9545 -13.2514,9.2193 -24.5121,10.792 -2.7362,0.3821 -6.6452,0.4545 -28.8828,0.535 -17.5434,0.063 -25.7721,0.01 -25.8876,-0.1808 z m 49.6215,-23.9019 c 3.5033,-0.6271 5.4784,-1.7437 6.9899,-3.9519 1.6755,-2.4478 2.1788,-6.4729 1.2186,-9.7454 -0.7553,-2.5739 -3.4247,-5.0367 -6.6086,-6.097 -1.6401,-0.5462 -2.2914,-0.582 -12.2494,-0.6743 l -10.5172,-0.098 v 10.4699 10.4699 l 9.5912,-0.01 c 6.8269,-0.01 10.163,-0.1116 11.5755,-0.3644 z m -1.3779,-42.9079 c 5.1411,-1.0564 7.5946,-4.0089 7.5673,-9.1059 -0.024,-4.5142 -2.2939,-7.2666 -7.1154,-8.6283 -1.3122,-0.3706 -3.2054,-0.4687 -10.9141,-0.5657 l -9.3266,-0.1173 v 9.4181 9.4182 h 8.8747 c 7.0628,0 9.2911,-0.086 10.9141,-0.4191 z"
       transform="translate(-47.139136,-266.0189)"
       id="path45" /><path
       style="fill:#877d4f;fill-opacity:1"
       d="m -2076.4079,-1466.4065 v -10.6909 l 6.8386,-10.7981 c 3.7612,-5.939 12.0561,-19.0135 18.433,-29.0545 6.3769,-10.0409 12.1135,-19.0897 12.748,-20.1083 l 1.1538,-1.8521 -19.4544,-0.068 -19.4544,-0.068 v -11.9045 -11.9046 h 35.851 35.8511 v 10.5172 10.5172 l -12.858,20.2406 c -22.8207,35.9236 -26.0615,41.0463 -26.2075,41.4268 -0.1228,0.32 2.7955,0.3839 20.1909,0.4419 l 20.3345,0.068 v 11.8941 11.8941 l -36.711,0.07 -36.7109,0.07 z"
       transform="translate(-48.384164,-266.04953)"
       id="path44" /><path
       style="fill:#877d4f;fill-opacity:1"
       d="m -1848.0725,-1452.1577 c -11.9461,-1.0966 -22.3197,-5.0611 -31.5757,-12.0674 -2.7639,-2.0921 -8.2039,-7.4037 -10.2728,-10.0303 -4.1109,-5.2191 -7.7966,-11.7642 -9.7388,-17.2946 -4.6519,-13.246 -4.3971,-28.6082 0.6865,-41.3845 5.6097,-14.0986 15.4108,-24.8838 28.5846,-31.4546 5.7224,-2.8543 10.3972,-4.3964 16.76,-5.529 5.039,-0.8969 13.4003,-1.0093 18.3885,-0.2471 4.0171,0.6137 9.3404,1.9678 12.5058,3.1812 20.2973,7.7802 34.4101,25.4261 37.7944,47.2559 0.6475,4.1765 0.6534,12.4835 0.012,16.6317 -2.1006,13.5817 -8.0078,24.9766 -17.928,34.5829 -8.7755,8.4977 -19.9944,14.0112 -32.2517,15.85 -2.7374,0.4106 -10.6419,0.719 -12.9646,0.5058 z m -27.1289,-20.3214 c 0.9981,-0.4171 1.2962,-0.8959 2.4968,-4.0118 0.4533,-1.1763 1.091,-2.3846 1.4172,-2.6851 0.3262,-0.3005 3.8375,-2.1662 7.8029,-4.146 3.9655,-1.9798 7.2052,-3.6885 7.1994,-3.7972 -0.01,-0.1086 -0.9689,-0.9118 -2.1402,-1.7849 -1.1713,-0.8732 -2.4465,-1.9567 -2.8338,-2.408 l -0.704,-0.8204 -6.2177,2.8563 c -3.4198,1.5709 -6.5955,2.9339 -7.0572,3.0288 -0.5617,0.1155 -1.6121,-0.055 -3.175,-0.5145 -2.6487,-0.7793 -3.7638,-0.8514 -4.8088,-0.311 -0.9397,0.4859 -2.2189,2.8379 -2.2531,4.1425 -0.035,1.3562 0.6605,2.225 2.6098,3.2576 l 1.5874,0.8408 -0.093,2.2596 c -0.085,2.0644 -0.04,2.3217 0.5292,2.9784 1.1553,1.3337 3.8447,1.8653 5.6406,1.1149 z m 66.6633,0.085 c 0.5706,-0.1584 1.3912,-0.6418 1.8236,-1.0742 0.7804,-0.7804 0.7849,-0.8024 0.6164,-2.9942 l -0.1697,-2.208 1.6351,-0.8972 c 0.8993,-0.4934 1.8768,-1.2211 2.1724,-1.6169 1.6553,-2.2171 -1.2155,-6.9575 -3.8458,-6.3502 -0.343,0.079 -1.5526,0.4286 -2.6879,0.7764 -1.1353,0.3478 -2.3083,0.6324 -2.6068,0.6324 -0.5249,0 -2.1975,-0.7079 -10.2328,-4.3311 l -3.7912,-1.7095 -0.9229,1.0215 c -0.5075,0.5618 -1.8164,1.7059 -2.9086,2.5425 l -1.9859,1.521 7.4024,3.7189 c 4.0713,2.0455 7.6467,3.9411 7.9453,4.2127 0.2986,0.2715 0.8632,1.3431 1.2547,2.3812 0.3914,1.0382 0.9392,2.3427 1.2172,2.8989 0.7974,1.5956 2.6824,2.1427 5.0845,1.4758 z m -29.4802,-14.1095 c 1.4256,-0.7609 9.2598,-6.7873 9.2649,-7.1269 0,-0.1654 0.2996,-2.7415 0.6602,-5.7247 0.3605,-2.9832 0.6561,-5.7406 0.6569,-6.1276 v -0.7037 l -1.3378,0.353 c -0.7358,0.1941 -1.4969,0.4848 -1.6912,0.6461 -0.1944,0.1613 -0.7406,1.8504 -1.2138,3.7536 -0.9831,3.9537 -0.7134,3.6795 -4.6407,4.7186 -3.423,0.9056 -7.0584,1.2159 -10.0788,0.8601 -2.9992,-0.3532 -7.7177,-1.4909 -8.2018,-1.9776 -0.1816,-0.1825 -0.7371,-1.8635 -1.2344,-3.7355 -0.4974,-1.8719 -1.068,-3.5073 -1.268,-3.6341 -0.5162,-0.3271 -2.8918,-1.1057 -3.0108,-0.9867 -0.054,0.055 0.119,1.8824 0.3858,4.0618 0.2667,2.1795 0.5719,4.8556 0.6782,5.947 0.1063,1.0914 0.2864,2.2307 0.4003,2.5317 0.2769,0.7315 8.8708,7.1377 10.0463,7.4889 0.5246,0.1567 2.8189,0.2492 5.2917,0.2135 3.6752,-0.053 4.5121,-0.1414 5.2917,-0.5575 z m -24.7458,-12.9177 c -0.1015,-1.0551 -0.3201,-2.8708 -0.4856,-4.0349 l -0.3009,-2.1167 -4.8221,-2.5164 c -2.6522,-1.3841 -4.9937,-2.6938 -5.2034,-2.9105 -0.2097,-0.2166 -0.8137,-1.5219 -1.3421,-2.9006 -0.5285,-1.3787 -1.1531,-2.7192 -1.3881,-2.9788 -1.6388,-1.8109 -6.6023,-0.6933 -7.0619,1.59 -0.08,0.3963 0.012,1.5228 0.2031,2.5034 0.3883,1.9888 0.4018,1.96 -1.4244,3.0517 -2.3746,1.4195 -2.8367,2.8372 -1.6579,5.0854 0.4284,0.817 1.1619,1.7236 1.6753,2.0706 1.1161,0.7544 2.0226,0.7 5.47,-0.3283 l 2.4402,-0.7279 3.2483,1.3915 c 1.7866,0.7654 4.8557,2.1439 6.8203,3.0634 1.9645,0.9195 3.6713,1.6728 3.7929,1.674 0.1215,0 0.1379,-0.8609 0.036,-1.9159 z m 44.8399,-1.0445 c 4.5775,-2.0875 6.77,-2.9552 7.4225,-2.9375 0.5094,0.014 1.8786,0.3334 3.0428,0.7103 2.4311,0.787 3.2971,0.8477 4.3476,0.3044 0.8548,-0.442 2.2862,-2.4643 2.53,-3.5741 0.2981,-1.3572 -0.4575,-2.5452 -2.3894,-3.7564 -1.5828,-0.9924 -1.7391,-1.1676 -1.5918,-1.7844 0.09,-0.3762 0.2345,-1.4813 0.3216,-2.4557 0.1517,-1.6978 0.1263,-1.8038 -0.6085,-2.5386 -0.8917,-0.8917 -3.0941,-1.5199 -4.4419,-1.2671 -1.521,0.2853 -2.1594,1.0357 -3.2281,3.794 -0.5484,1.4154 -1.2463,2.8226 -1.5509,3.1271 -0.3045,0.3046 -2.5956,1.5853 -5.0914,2.846 -2.4957,1.2608 -4.6239,2.4317 -4.7291,2.6021 -0.347,0.5614 -1.0896,7.8926 -0.7995,7.8926 0.1482,0 3.193,-1.3332 6.7661,-2.9627 z m -20.7384,1.2325 c 3.5169,-0.6133 3.5855,-0.6662 4.2742,-3.3001 1.3326,-5.0969 1.7009,-5.4612 6.5811,-6.5098 1.7327,-0.3723 3.4678,-0.7959 3.8558,-0.9413 1.0027,-0.3758 3.3957,-4.0529 3.3957,-5.2179 0,-0.2902 -0.6467,-1.7547 -1.4371,-3.2543 -1.6203,-3.0741 -2.7672,-5.8797 -3.4414,-8.4183 l -0.4576,-1.7229 0.8162,-3.5558 c 0.4489,-1.9556 0.9152,-3.6548 1.0363,-3.7758 0.2748,-0.2748 1.0195,-0.01 1.1859,0.4271 0.068,0.1784 -0.037,1.3896 -0.2348,2.6915 -0.5836,3.8465 -0.5247,4.3166 0.9823,7.8278 0.7482,1.7432 1.4552,3.0731 1.5712,2.9555 0.4135,-0.4196 1.513,-4.7538 1.8323,-7.223 1.0568,-8.1712 -2.554,-16.2367 -9.3468,-20.8782 -2.0546,-1.4038 -6.0497,-3.1748 -8.8373,-3.9172 -2.2474,-0.5986 -3.1251,-0.6902 -6.688,-0.6974 -3.3505,-0.01 -4.5291,0.098 -6.4399,0.5708 -9.2799,2.2981 -15.9509,8.1941 -18.2237,16.1064 -0.7834,2.7275 -0.8469,9.0317 -0.1181,11.7235 0.7509,2.7734 1.2619,4.2333 1.4816,4.2333 0.2505,0 2.6373,-5.3633 2.8418,-6.3858 0.081,-0.4032 -0.064,-2.126 -0.3213,-3.8283 -0.4543,-3.0052 -0.4535,-3.1058 0.025,-3.4556 0.271,-0.1982 0.6162,-0.3191 0.7672,-0.2688 0.3761,0.1254 1.7148,5.8444 1.7239,7.3645 0.01,1.6995 -1.5111,5.9795 -3.5894,10.0988 l -1.7116,3.3925 0.9982,1.848 c 1.1159,2.066 2.2482,3.3579 3.0885,3.5236 8.0339,1.5843 8.6393,1.9995 9.8123,6.7274 0.7156,2.8845 0.7364,2.9251 1.6524,3.2274 3.138,1.0356 8.9752,1.3212 12.9252,0.6324 z m -8.4802,-8.3199 c -0.6881,-0.7604 -0.4015,-2.5547 0.8847,-5.5381 1.2439,-2.8851 1.7386,-3.5167 2.6697,-3.4082 0.5584,0.065 0.8671,0.4681 1.7829,2.3276 0.6092,1.237 1.3075,2.9782 1.5517,3.8695 0.3837,1.4005 0.3947,1.7239 0.081,2.3813 -0.5041,1.0568 -1.7251,1.1715 -2.5964,0.244 -0.7843,-0.8348 -0.9336,-0.8358 -1.9121,-0.012 -0.9473,0.7971 -1.8199,0.8455 -2.4616,0.1364 z m -11.1003,-8.2723 c -1.1025,-1.1059 -2.0002,-3.5107 -2.0002,-5.3585 0,-1.2197 0.1201,-1.5729 0.7971,-2.344 1.1943,-1.3602 2.5696,-1.8021 6.082,-1.9542 3.5806,-0.155 4.7253,0.1696 5.4346,1.5413 0.6418,1.241 0.4395,3.8171 -0.3914,4.9839 -1.3057,1.8338 -5.5533,3.9914 -7.8577,3.9914 -1.0096,0 -1.3474,-0.1407 -2.0644,-0.8599 z m 24.7151,0.4785 c -4.5435,-1.6746 -6.9768,-4.3812 -6.5122,-7.2438 0.3594,-2.2146 1.6522,-2.9602 5.1222,-2.954 6.8149,0.012 8.9492,2.4072 6.9373,7.7846 -0.966,2.5819 -2.8573,3.4047 -5.5473,2.4132 z"
       transform="matrix(1.4040766,0,0,1.4040766,549.63216,198.78573)"
       id="path43" /></g></svg>
